<?xml version="1.0" encoding="UTF-8"?>
<svg version="1.1" xmlns="http://www.w3.org/2000/svg" width="193" height="185">
<path d="M0 0 C1.64510941 0.00015915 3.29022379 0.00585551 4.93530273 0.01586914 C6.23164894 0.01799156 6.23164894 0.01799156 7.55418396 0.02015686 C10.32578941 0.025773 13.09731528 0.0383282 15.86889648 0.05102539 C17.74324428 0.05603831 19.61759334 0.06060158 21.49194336 0.06469727 C26.09679192 0.07574767 30.70158069 0.09302309 35.30639648 0.11352539 C35.719823 1.8901355 35.719823 1.8901355 36.14160156 3.70263672 C37.18863328 8.15405563 38.28772603 12.59131122 39.40185547 17.02636719 C39.87417117 18.93637523 40.33287145 20.8498097 40.77685547 22.76660156 C43.70832148 35.37091836 46.59620711 44.2111276 57.30639648 52.11352539 C57.96639648 52.44352539 58.62639648 52.77352539 59.30639648 53.11352539 C59.30639648 53.77352539 59.30639648 54.43352539 59.30639648 55.11352539 C56.29607905 56.04776184 55.43989381 56.1580245 52.30639648 55.11352539 C52.20842773 55.81477539 52.11045898 56.51602539 52.00952148 57.23852539 C51.00665484 63.60154132 49.47978117 68.50721245 46.30639648 74.11352539 C47.62639648 73.78352539 48.94639648 73.45352539 50.30639648 73.11352539 C49.95760017 76.36895768 49.28506387 77.13225646 46.74389648 79.36352539 C45.93952148 79.94102539 45.13514648 80.51852539 44.30639648 81.11352539 C45.79139648 82.10352539 45.79139648 82.10352539 47.30639648 83.11352539 C47.30639648 82.45352539 47.30639648 81.79352539 47.30639648 81.11352539 C48.33700195 81.23920898 48.33700195 81.23920898 49.38842773 81.36743164 C50.28948242 81.46926758 51.19053711 81.57110352 52.11889648 81.67602539 C53.45887695 81.83264648 53.45887695 81.83264648 54.82592773 81.99243164 C57.44015221 82.27011248 57.44015221 82.27011248 60.30639648 81.11352539 C60.30639648 78.80352539 60.30639648 76.49352539 60.30639648 74.11352539 C64.05639648 72.98852539 64.05639648 72.98852539 66.30639648 74.11352539 C66.63639648 73.45352539 66.96639648 72.79352539 67.30639648 72.11352539 C68.29639648 72.11352539 69.28639648 72.11352539 70.30639648 72.11352539 C70.30639648 72.77352539 70.30639648 73.43352539 70.30639648 74.11352539 C74.52469746 74.06938259 78.74155733 73.9995657 82.95898438 73.90600586 C84.39343331 73.87779357 85.82803777 73.85658015 87.26269531 73.8425293 C89.3262495 73.8211009 91.38793355 73.77446072 93.45092773 73.72290039 C94.69205322 73.70195313 95.93317871 73.68100586 97.21191406 73.65942383 C100.4069787 73.41269145 100.4069787 73.41269145 102.23486328 71.07543945 C102.58846924 70.42800781 102.9420752 69.78057617 103.30639648 69.11352539 C104.95639648 69.44352539 106.60639648 69.77352539 108.30639648 70.11352539 C108.33332133 72.40512858 108.35275772 74.69682085 108.36889648 76.98852539 C108.38049805 78.26469727 108.39209961 79.54086914 108.40405273 80.85571289 C108.30639648 84.11352539 108.30639648 84.11352539 107.30639648 86.11352539 C105.65639648 85.78352539 104.00639648 85.45352539 102.30639648 85.11352539 C102.30639648 84.45352539 102.30639648 83.79352539 102.30639648 83.11352539 C100.32730251 83.08665986 98.34810678 83.06719164 96.36889648 83.05102539 C94.71567383 83.03362305 94.71567383 83.03362305 93.02905273 83.01586914 C90.39192015 82.80089968 90.39192015 82.80089968 89.30639648 84.11352539 C88.06889648 84.25790039 86.83139648 84.40227539 85.55639648 84.55102539 C82.17186552 84.95741173 79.2915298 85.35756462 76.30639648 87.11352539 C74.94561613 89.6372544 74.94561613 89.6372544 74.30639648 92.11352539 C72.98639648 92.11352539 71.66639648 92.11352539 70.30639648 92.11352539 C69.64639648 93.10352539 68.98639648 94.09352539 68.30639648 95.11352539 C66.24780273 95.91430664 66.24780273 95.91430664 63.86889648 96.42602539 C63.08643555 96.6077832 62.30397461 96.78954102 61.49780273 96.97680664 C59.30639648 97.11352539 59.30639648 97.11352539 56.30639648 95.11352539 C54.019908 94.87245213 54.019908 94.87245213 51.61889648 94.98852539 C50.8106543 95.00657227 50.00241211 95.02461914 49.16967773 95.04321289 C48.55479492 95.06641602 47.93991211 95.08961914 47.30639648 95.11352539 C47.30639648 94.45352539 47.30639648 93.79352539 47.30639648 93.11352539 C44.99639648 92.45352539 42.68639648 91.79352539 40.30639648 91.11352539 C40.63639648 92.10352539 40.96639648 93.09352539 41.30639648 94.11352539 C41.51987208 95.74081632 41.69359185 97.37350619 41.84155273 99.00805664 C41.92856445 99.96389648 42.01557617 100.91973633 42.10522461 101.90454102 C42.19223633 102.90163086 42.27924805 103.8987207 42.36889648 104.92602539 C42.50521484 106.40425781 42.50521484 106.40425781 42.64428711 107.91235352 C43.06842819 112.66082024 43.42795146 117.34046657 43.30639648 122.11352539 C41.32639648 122.77352539 39.34639648 123.43352539 37.30639648 124.11352539 C37.30639648 126.75352539 37.30639648 129.39352539 37.30639648 132.11352539 C31.99712224 132.5487118 31.99712224 132.5487118 29.30639648 132.11352539 C26.85318004 129.27699388 26.30639648 127.86229043 26.30639648 124.11352539 C25.64639648 124.11352539 24.98639648 124.11352539 24.30639648 124.11352539 C23.97639648 123.45352539 23.64639648 122.79352539 23.30639648 122.11352539 C17.69639648 122.11352539 12.08639648 122.11352539 6.30639648 122.11352539 C5.83202148 123.57790039 5.35764648 125.04227539 4.86889648 126.55102539 C3.43139648 130.98852539 3.43139648 130.98852539 2.30639648 132.11352539 C0.49389648 132.24633789 0.49389648 132.24633789 -1.69360352 132.23852539 C-2.41547852 132.24110352 -3.13735352 132.24368164 -3.88110352 132.24633789 C-5.69360352 132.11352539 -5.69360352 132.11352539 -6.69360352 131.11352539 C-6.73453289 128.78055106 -6.73602075 126.44647314 -6.69360352 124.11352539 C-8.67360352 123.12352539 -10.65360352 122.13352539 -12.69360352 121.11352539 C-12.36360352 116.49352539 -12.03360352 111.87352539 -11.69360352 107.11352539 C-15.03660069 111.71336203 -15.03660069 111.71336203 -14.69360352 116.11352539 C-17.16860352 117.10352539 -17.16860352 117.10352539 -19.69360352 118.11352539 C-19.69360352 117.45352539 -19.69360352 116.79352539 -19.69360352 116.11352539 C-20.45672852 116.15477539 -21.21985352 116.19602539 -22.00610352 116.23852539 C-24.69360352 116.11352539 -24.69360352 116.11352539 -27.69360352 114.11352539 C-27.69360352 114.77352539 -27.69360352 115.43352539 -27.69360352 116.11352539 C-25.71360352 116.77352539 -23.73360352 117.43352539 -21.69360352 118.11352539 C-21.69360352 118.44352539 -21.69360352 118.77352539 -21.69360352 119.11352539 C-28.50419415 119.42309769 -28.50419415 119.42309769 -31.69360352 117.11352539 C-34.69203036 113.076619 -34.94124732 110.26015504 -34.88110352 105.30102539 C-35.13998998 100.03516461 -35.63860254 97.2777927 -39.44360352 93.55102539 C-40.84067692 92.38138254 -42.25609357 91.23309836 -43.69360352 90.11352539 C-45.36027018 88.44685872 -47.02693685 86.78019206 -48.69360352 85.11352539 C-49.29172852 84.57727539 -49.88985352 84.04102539 -50.50610352 83.48852539 C-51.69360352 82.11352539 -51.69360352 82.11352539 -51.69360352 79.11352539 C-50.00610352 79.23852539 -50.00610352 79.23852539 -47.69360352 80.11352539 C-46.50002237 81.50603672 -45.31350977 82.90630984 -44.18969727 84.35571289 C-41.87785102 87.07198132 -39.17686392 89.29408443 -36.46313477 91.59790039 C-34.69360352 93.11352539 -34.69360352 93.11352539 -32.69360352 95.11352539 C-30.66466647 95.33896284 -28.63544911 95.56284996 -26.60375977 95.76196289 C-24.18543289 96.20705373 -23.08910642 97.10748997 -21.69360352 99.11352539 C-20.93047852 98.14415039 -20.16735352 97.17477539 -19.38110352 96.17602539 C-17.42611537 93.69266207 -16.83710193 93.1613582 -13.69360352 92.11352539 C-12.01942661 90.02654981 -12.01942661 90.02654981 -10.50610352 87.55102539 C-9.71139648 86.3115918 -9.71139648 86.3115918 -8.90063477 85.04711914 C-8.50231445 84.4090332 -8.10399414 83.77094727 -7.69360352 83.11352539 C-9.47702481 79.32275547 -10.9330497 77.19383175 -14.69360352 75.11352539 C-17.05741409 75.44385827 -19.24608737 76.06587107 -21.54125977 76.71508789 C-23.69360352 77.11352539 -23.69360352 77.11352539 -26.63110352 75.92602539 C-28.69360352 74.11352539 -28.69360352 74.11352539 -30.69360352 71.11352539 C-30.55463516 67.29189567 -30.31719792 64.91528962 -27.94360352 61.86352539 C-25.6223062 60.05807192 -23.2494399 58.56413523 -20.69360352 57.11352539 C-20.36360352 56.78352539 -20.03360352 56.45352539 -19.69360352 56.11352539 C-22.66360352 55.78352539 -25.63360352 55.45352539 -28.69360352 55.11352539 C-23.22764644 48.5810401 -23.22764644 48.5810401 -21.07481384 46.69639587 C-16.04949595 42.17263387 -14.20424461 38.21198842 -12.63891602 31.71508789 C-12.40703583 30.8395224 -12.17515564 29.96395691 -11.93624878 29.06185913 C-11.20766444 26.29273163 -10.51227349 23.51658199 -9.81860352 20.73852539 C-9.09636991 17.94131078 -8.36751204 15.14590286 -7.63668823 12.35092163 C-7.18605608 10.61760836 -6.74179458 8.8826241 -6.30447388 7.14590454 C-4.52559047 0.13909707 -4.52559047 0.13909707 0 0 Z M-23.69360352 67.11352539 C-23.69360352 68.10352539 -23.69360352 69.09352539 -23.69360352 70.11352539 C-22.70360352 70.11352539 -21.71360352 70.11352539 -20.69360352 70.11352539 C-21.02360352 69.12352539 -21.35360352 68.13352539 -21.69360352 67.11352539 C-22.35360352 67.11352539 -23.01360352 67.11352539 -23.69360352 67.11352539 Z " fill="#173E40" transform="translate(69.693603515625,18.886474609375)"/>
<path d="M0 0 C1.64510941 0.00015915 3.29022379 0.00585551 4.93530273 0.01586914 C6.23164894 0.01799156 6.23164894 0.01799156 7.55418396 0.02015686 C10.32578941 0.025773 13.09731528 0.0383282 15.86889648 0.05102539 C17.74324428 0.05603831 19.61759334 0.06060158 21.49194336 0.06469727 C26.09679192 0.07574767 30.70158069 0.09302309 35.30639648 0.11352539 C35.719823 1.8901355 35.719823 1.8901355 36.14160156 3.70263672 C37.18863328 8.15405563 38.28772603 12.59131122 39.40185547 17.02636719 C39.87417117 18.93637523 40.33287145 20.8498097 40.77685547 22.76660156 C43.70832148 35.37091836 46.59620711 44.2111276 57.30639648 52.11352539 C57.96639648 52.44352539 58.62639648 52.77352539 59.30639648 53.11352539 C59.30639648 53.77352539 59.30639648 54.43352539 59.30639648 55.11352539 C56.29607905 56.04776184 55.43989381 56.1580245 52.30639648 55.11352539 C51.97639648 56.43352539 51.64639648 57.75352539 51.30639648 59.11352539 C49.82139648 58.61852539 49.82139648 58.61852539 48.30639648 58.11352539 C47.97639648 59.76352539 47.64639648 61.41352539 47.30639648 63.11352539 C45.65639648 63.44352539 44.00639648 63.77352539 42.30639648 64.11352539 C41.31639648 62.13352539 41.31639648 62.13352539 40.30639648 60.11352539 C39.31639648 60.11352539 38.32639648 60.11352539 37.30639648 60.11352539 C37.30639648 58.46352539 37.30639648 56.81352539 37.30639648 55.11352539 C35.40992651 55.22846297 33.51421316 55.35592181 31.61889648 55.48852539 C30.0352832 55.59293945 30.0352832 55.59293945 28.41967773 55.69946289 C25.38736637 56.1027565 23.10805437 56.93940641 20.30639648 58.11352539 C19.31639648 58.11352539 18.32639648 58.11352539 17.30639648 58.11352539 C17.24452148 59.18602539 17.18264648 60.25852539 17.11889648 61.36352539 C16.30639648 65.11352539 16.30639648 65.11352539 14.24389648 67.55102539 C10.19397736 69.70523769 7.87479109 69.54861059 3.30639648 69.11352539 C2.67862305 68.7280957 2.05084961 68.34266602 1.40405273 67.94555664 C-0.76861894 66.82564385 -0.76861894 66.82564385 -3.34985352 67.97680664 C-4.28829102 68.45504883 -5.22672852 68.93329102 -6.19360352 69.42602539 C-9.35766667 71.01240321 -12.21229313 72.41562119 -15.69360352 73.11352539 C-15.25610352 70.36352539 -15.25610352 70.36352539 -13.69360352 67.11352539 C-9.90866329 64.71154409 -6.19386425 63.11352539 -1.69360352 63.11352539 C-1.36360352 60.47352539 -1.03360352 57.83352539 -0.69360352 55.11352539 C-9.93360352 55.11352539 -19.17360352 55.11352539 -28.69360352 55.11352539 C-22.26424985 47.61261278 -22.26424985 47.61261278 -19.00952148 44.76342773 C-15.09291055 40.89149348 -13.90709174 36.97865465 -12.63891602 31.71508789 C-12.40703583 30.8395224 -12.17515564 29.96395691 -11.93624878 29.06185913 C-11.20766444 26.29273163 -10.51227349 23.51658199 -9.81860352 20.73852539 C-9.09636991 17.94131078 -8.36751204 15.14590286 -7.63668823 12.35092163 C-7.18605608 10.61760836 -6.74179458 8.8826241 -6.30447388 7.14590454 C-4.52559047 0.13909707 -4.52559047 0.13909707 0 0 Z " fill="#173B3F" transform="translate(69.693603515625,18.886474609375)"/>
<path d="M0 0 C1.65 0.33 3.3 0.66 5 1 C5.02692484 3.29160319 5.04636124 5.58329546 5.0625 7.875 C5.07410156 9.15117188 5.08570313 10.42734375 5.09765625 11.7421875 C5 15 5 15 4 17 C2.35 16.67 0.7 16.34 -1 16 C-1 15.34 -1 14.68 -1 14 C-2.97909398 13.97313447 -4.95828971 13.95366625 -6.9375 13.9375 C-8.59072266 13.92009766 -8.59072266 13.92009766 -10.27734375 13.90234375 C-12.91447634 13.68737429 -12.91447634 13.68737429 -14 15 C-15.2375 15.144375 -16.475 15.28875 -17.75 15.4375 C-21.13453097 15.84388633 -24.01486668 16.24403923 -27 18 C-28.36078035 20.52372901 -28.36078035 20.52372901 -29 23 C-30.32 23 -31.64 23 -33 23 C-33.99 24.485 -33.99 24.485 -35 26 C-37.05859375 26.80078125 -37.05859375 26.80078125 -39.4375 27.3125 C-40.21996094 27.49425781 -41.00242187 27.67601563 -41.80859375 27.86328125 C-44 28 -44 28 -47 26 C-49.28648848 25.75892674 -49.28648848 25.75892674 -51.6875 25.875 C-52.89986328 25.90207031 -52.89986328 25.90207031 -54.13671875 25.9296875 C-54.75160156 25.95289062 -55.36648437 25.97609375 -56 26 C-56 25.34 -56 24.68 -56 24 C-58.31 23.34 -60.62 22.68 -63 22 C-62.505 23.485 -62.505 23.485 -62 25 C-61.78652441 26.62729093 -61.61280463 28.2599808 -61.46484375 29.89453125 C-61.33432617 31.32829102 -61.33432617 31.32829102 -61.20117188 32.79101562 C-61.0706543 34.28665039 -61.0706543 34.28665039 -60.9375 35.8125 C-60.84662109 36.79798828 -60.75574219 37.78347656 -60.66210938 38.79882812 C-60.23796829 43.54729485 -59.87844502 48.22694118 -60 53 C-61.98 53.66 -63.96 54.32 -66 55 C-66 57.64 -66 60.28 -66 63 C-71.30927425 63.43518641 -71.30927425 63.43518641 -74 63 C-76.45321644 60.16346849 -77 58.74876504 -77 55 C-77.66 55 -78.32 55 -79 55 C-79.33 54.34 -79.66 53.68 -80 53 C-81.20398438 53 -82.40796875 53 -83.6484375 53 C-103.91666667 53 -103.91666667 53 -106.625 50.5 C-107.07875 50.005 -107.5325 49.51 -108 49 C-110.10332891 48.28552357 -110.10332891 48.28552357 -112 48 C-112 45.36 -112 42.72 -112 40 C-111.34 40 -110.68 40 -110 40 C-110.33 41.98 -110.66 43.96 -111 46 C-109.02 46 -107.04 46 -105 46 C-105 44.35 -105 42.7 -105 41 C-104.34 41 -103.68 41 -103 41 C-102.67 43.97 -102.34 46.94 -102 50 C-101.34 48.68 -100.68 47.36 -100 46 C-99.67 46.66 -99.34 47.32 -99 48 C-98.34 48 -97.68 48 -97 48 C-97 46.02 -97 44.04 -97 42 C-96.34 42 -95.68 42 -95 42 C-94.67 44.64 -94.34 47.28 -94 50 C-92.39620659 50.05416188 -90.79188594 50.09286638 -89.1875 50.125 C-87.84751953 50.15980469 -87.84751953 50.15980469 -86.48046875 50.1953125 C-83.74597286 50.18285827 -83.74597286 50.18285827 -81 48 C-80.26656572 44.93443402 -80.26656572 44.93443402 -80 42 C-79.34 42 -78.68 42 -78 42 C-78 33.09 -78 24.18 -78 15 C-74.535 14.505 -74.535 14.505 -71 14 C-71 13.34 -71 12.68 -71 12 C-71.61875 11.690625 -72.2375 11.38125 -72.875 11.0625 C-74.25 10.375 -75.625 9.6875 -77 9 C-77 9.66 -77 10.32 -77 11 C-80.06807234 13.04538156 -83.09524574 13.52998596 -86.76171875 13.4609375 C-91.09347389 12.56888321 -94.73773334 9.91489567 -98 7 C-98 6.34 -98 5.68 -98 5 C-97.13117188 5.01160156 -96.26234375 5.02320312 -95.3671875 5.03515625 C-94.21476562 5.04417969 -93.06234375 5.05320312 -91.875 5.0625 C-90.16957031 5.07990234 -90.16957031 5.07990234 -88.4296875 5.09765625 C-85.17913029 5.00510052 -82.19731802 4.55586796 -79 4 C-77.25161311 3.9140966 -75.50048773 3.86963041 -73.75 3.875 C-72.89921875 3.87242188 -72.0484375 3.86984375 -71.171875 3.8671875 C-69 4 -69 4 -67 5 C-65.37731009 5.09611752 -63.75052694 5.12982352 -62.125 5.125 C-61.26132813 5.12757812 -60.39765625 5.13015625 -59.5078125 5.1328125 C-57.19334029 5.01023921 -55.21710884 4.64966445 -53 4 C-53.34879632 7.25543229 -54.02133261 8.01873107 -56.5625 10.25 C-57.366875 10.8275 -58.17125 11.405 -59 12 C-58.01 12.66 -57.02 13.32 -56 14 C-56 13.34 -56 12.68 -56 12 C-55.31292969 12.08378906 -54.62585938 12.16757813 -53.91796875 12.25390625 C-53.01691406 12.35574219 -52.11585937 12.45757812 -51.1875 12.5625 C-50.29417969 12.66691406 -49.40085938 12.77132812 -48.48046875 12.87890625 C-45.86624428 13.15658709 -45.86624428 13.15658709 -43 12 C-43 9.69 -43 7.38 -43 5 C-39.25 3.875 -39.25 3.875 -37 5 C-36.67 4.34 -36.34 3.68 -36 3 C-35.01 3 -34.02 3 -33 3 C-33 3.66 -33 4.32 -33 5 C-28.78169902 4.9558572 -24.56483916 4.88604031 -20.34741211 4.79248047 C-18.91296317 4.76426818 -17.47835871 4.74305476 -16.04370117 4.72900391 C-13.98014698 4.70757551 -11.91846294 4.66093533 -9.85546875 4.609375 C-8.61434326 4.58842773 -7.37321777 4.56748047 -6.09448242 4.54589844 C-2.89941778 4.29916605 -2.89941778 4.29916605 -1.0715332 1.96191406 C-0.71792725 1.31448242 -0.36432129 0.66705078 0 0 Z " fill="#164044" transform="translate(173,88)"/>
<path d="M0 0 C0.74362793 0.01047363 1.48725586 0.02094727 2.25341797 0.03173828 C3.46191406 0.04140625 3.46191406 0.04140625 4.69482422 0.05126953 C5.95746094 0.07640625 5.95746094 0.07640625 7.24560547 0.10205078 C8.51984375 0.11558594 8.51984375 0.11558594 9.81982422 0.12939453 C11.9202043 0.15299431 14.02043991 0.18886595 16.12060547 0.22705078 C15.79060547 2.86705078 15.46060547 5.50705078 15.12060547 8.22705078 C14.27755859 8.52998047 13.43451172 8.83291016 12.56591797 9.14501953 C10.92236328 9.7734375 10.92236328 9.7734375 9.24560547 10.41455078 C8.15505859 10.82060547 7.06451172 11.22666016 5.94091797 11.64501953 C2.93022425 12.99384397 2.93022425 12.99384397 1.73779297 15.90283203 C1.53412109 16.66982422 1.33044922 17.43681641 1.12060547 18.22705078 C1.76126953 17.88931641 2.40193359 17.55158203 3.06201172 17.20361328 C8.03244443 14.64061817 12.67852044 12.52841894 18.12060547 11.22705078 C18.78060547 11.88705078 19.44060547 12.54705078 20.12060547 13.22705078 C26.04066939 13.91570833 26.04066939 13.91570833 31.05810547 11.03955078 C33.31243875 8.44896518 33.31243875 8.44896518 33.43310547 5.60205078 C33.65998047 4.81830078 33.88685547 4.03455078 34.12060547 3.22705078 C40.62190074 -0.33026173 46.84714926 -0.10025475 54.12060547 0.22705078 C54.12060547 1.87705078 54.12060547 3.52705078 54.12060547 5.22705078 C55.11060547 5.22705078 56.10060547 5.22705078 57.12060547 5.22705078 C58.11060547 6.71205078 58.11060547 6.71205078 59.12060547 8.22705078 C61.59560547 7.73205078 61.59560547 7.73205078 64.12060547 7.22705078 C64.45060547 5.90705078 64.78060547 4.58705078 65.12060547 3.22705078 C65.78060547 3.22705078 66.44060547 3.22705078 67.12060547 3.22705078 C67.60797022 9.92831614 66.19769351 14.29266671 63.12060547 20.22705078 C61.55820515 20.25435486 59.99566277 20.27358304 58.43310547 20.28955078 C57.56298828 20.30115234 56.69287109 20.31275391 55.79638672 20.32470703 C53.12060547 20.22705078 53.12060547 20.22705078 50.64404297 19.73095703 C47.85308361 19.17362923 45.27701761 19.09429113 42.43310547 19.10205078 C41.48048828 19.09947266 40.52787109 19.09689453 39.54638672 19.09423828 C37.11064049 19.06634669 37.11064049 19.06634669 35.12060547 20.22705078 C33.28931776 20.32313686 31.45440588 20.35687657 29.62060547 20.35205078 C28.64091797 20.35462891 27.66123047 20.35720703 26.65185547 20.35986328 C24.12060547 20.22705078 24.12060547 20.22705078 22.12060547 19.22705078 C26.71975504 24.36076904 26.71975504 24.36076904 33.00732422 26.37548828 C36.51287998 26.44028598 39.76303522 26.34624086 43.12060547 25.22705078 C43.12060547 24.56705078 43.12060547 23.90705078 43.12060547 23.22705078 C45.12060547 24.22705078 47.12060547 25.22705078 49.12060547 26.22705078 C49.12060547 26.88705078 49.12060547 27.54705078 49.12060547 28.22705078 C44.81274572 29.57853619 41.70102955 30.22705078 37.12060547 30.22705078 C37.12060547 34.51705078 37.12060547 38.80705078 37.12060547 43.22705078 C34.48060547 43.22705078 31.84060547 43.22705078 29.12060547 43.22705078 C29.12060547 38.93705078 29.12060547 34.64705078 29.12060547 30.22705078 C27.32623047 30.14455078 25.53185547 30.06205078 23.68310547 29.97705078 C16.33628256 29.35399866 10.40371555 27.63516086 5.12060547 22.35205078 C2.43011762 19.94957434 2.43011762 19.94957434 -0.07080078 20.46142578 C-1.64014462 20.88543301 -3.20428727 21.32922841 -4.76220703 21.79345703 C-6.87939453 22.22705078 -6.87939453 22.22705078 -9.81689453 21.03955078 C-11.87939453 19.22705078 -11.87939453 19.22705078 -13.87939453 16.22705078 C-13.74042618 12.40542107 -13.50298894 10.02881501 -11.12939453 6.97705078 C-8.80857579 5.17196954 -6.42180587 3.69897313 -3.87939453 2.22705078 C-1.87939453 0.22705078 -1.87939453 0.22705078 0 0 Z M-6.87939453 12.22705078 C-6.87939453 13.21705078 -6.87939453 14.20705078 -6.87939453 15.22705078 C-5.88939453 15.22705078 -4.89939453 15.22705078 -3.87939453 15.22705078 C-4.20939453 14.23705078 -4.53939453 13.24705078 -4.87939453 12.22705078 C-5.53939453 12.22705078 -6.19939453 12.22705078 -6.87939453 12.22705078 Z " fill="#F1D7B9" transform="translate(52.87939453125,73.77294921875)"/>
<path d="M0 0 C1.64510941 0.00015915 3.29022379 0.00585551 4.93530273 0.01586914 C6.23164894 0.01799156 6.23164894 0.01799156 7.55418396 0.02015686 C10.32578941 0.025773 13.09731528 0.0383282 15.86889648 0.05102539 C17.74324428 0.05603831 19.61759334 0.06060158 21.49194336 0.06469727 C26.09679192 0.07574767 30.70158069 0.09302309 35.30639648 0.11352539 C36.47918363 4.38270229 37.64357721 8.6541237 38.80639648 12.92602539 C39.14026367 14.1409668 39.47413086 15.3559082 39.81811523 16.60766602 C40.13393555 17.77104492 40.44975586 18.93442383 40.77514648 20.13305664 C41.0684082 21.206604 41.36166992 22.28015137 41.66381836 23.38623047 C42.30639648 26.11352539 42.30639648 26.11352539 42.30639648 29.11352539 C35.78777184 29.48959989 35.78777184 29.48959989 33.30639648 27.55102539 C31.22510128 25.73923609 31.22510128 25.73923609 27.68139648 26.30102539 C24.25719705 26.81474824 24.25719705 26.81474824 22.30639648 29.11352539 C19.72536342 29.28855534 17.25331486 29.34514818 14.67358398 29.30883789 C13.54583054 29.30459305 13.54583054 29.30459305 12.39529419 29.30026245 C9.99050071 29.28905413 7.58607767 29.26394891 5.18139648 29.23852539 C3.55249561 29.22849641 1.9235889 29.21937042 0.29467773 29.21118164 C-3.70155907 29.18911274 -7.69751846 29.1545789 -11.69360352 29.11352539 C-4.98320387 0.15316213 -4.98320387 0.15316213 0 0 Z " fill="#153C42" transform="translate(69.693603515625,18.886474609375)"/>
<path d="M0 0 C4.0087288 0.78219099 5.25521547 2.13795683 7.5625 5.5 C8.13680948 9.22496054 8.27925625 12.7907864 7.5625 16.5 C4.29871267 18.67585822 3.40345685 18.74605016 -0.36791992 18.72705078 C-1.36873093 18.72689972 -2.36954193 18.72674866 -3.40068054 18.72659302 C-4.47888565 18.71627045 -5.55709076 18.70594788 -6.66796875 18.6953125 C-8.32630486 18.69106766 -8.32630486 18.69106766 -10.0181427 18.68673706 C-13.55387128 18.67553002 -17.0893478 18.65042427 -20.625 18.625 C-23.02017864 18.61497089 -25.41536124 18.60584492 -27.81054688 18.59765625 C-33.68628411 18.57558897 -39.56187405 18.54210618 -45.4375 18.5 C-44.79549564 16.35301798 -44.14879254 14.20744047 -43.5 12.0625 C-42.96052734 10.27005859 -42.96052734 10.27005859 -42.41015625 8.44140625 C-41.4375 5.5 -41.4375 5.5 -40.4375 4.5 C-37.9652975 4.37704652 -35.51667594 4.31394043 -33.04296875 4.2890625 C-31.51496338 4.2609866 -29.98696873 4.23232209 -28.45898438 4.203125 C-26.04289124 4.16189558 -23.6269967 4.12502181 -21.21069336 4.09863281 C-18.88352714 4.07099369 -16.55728011 4.02511456 -14.23046875 3.9765625 C-13.51054245 3.97330963 -12.79061615 3.97005676 -12.0488739 3.96670532 C-6.77725954 3.83774024 -4.60202146 0.9440044 0 0 Z " fill="#D13002" transform="translate(98.4375,43.5)"/>
<path d="M0 0 C2.475 0.495 2.475 0.495 5 1 C5.02692484 3.29160319 5.04636124 5.58329546 5.0625 7.875 C5.07410156 9.15117188 5.08570313 10.42734375 5.09765625 11.7421875 C5 15 5 15 4 17 C2.35 16.67 0.7 16.34 -1 16 C-1 15.34 -1 14.68 -1 14 C-2.97909398 13.97313447 -4.95828971 13.95366625 -6.9375 13.9375 C-8.59072266 13.92009766 -8.59072266 13.92009766 -10.27734375 13.90234375 C-12.91447634 13.68737429 -12.91447634 13.68737429 -14 15 C-15.2375 15.144375 -16.475 15.28875 -17.75 15.4375 C-21.13453097 15.84388633 -24.01486668 16.24403923 -27 18 C-28.36078035 20.52372901 -28.36078035 20.52372901 -29 23 C-30.32 23 -31.64 23 -33 23 C-33.66 23.99 -34.32 24.98 -35 26 C-36.32 25.67 -37.64 25.34 -39 25 C-38.67 23.02 -38.34 21.04 -38 19 C-36.35 18.67 -34.7 18.34 -33 18 C-35.475 17.01 -35.475 17.01 -38 16 C-38 15.01 -38 14.02 -38 13 C-38.99 13 -39.98 13 -41 13 C-41 14.98 -41 16.96 -41 19 C-42.65614657 19.38218767 -44.32457024 19.71395102 -46 20 C-47 19 -47 19 -47.0625 16.4375 C-47.041875 15.633125 -47.02125 14.82875 -47 14 C-45.68 13.34 -44.36 12.68 -43 12 C-43 9.69 -43 7.38 -43 5 C-39.25 3.875 -39.25 3.875 -37 5 C-36.67 4.34 -36.34 3.68 -36 3 C-35.01 3 -34.02 3 -33 3 C-33 3.66 -33 4.32 -33 5 C-28.78169902 4.9558572 -24.56483916 4.88604031 -20.34741211 4.79248047 C-18.91296317 4.76426818 -17.47835871 4.74305476 -16.04370117 4.72900391 C-13.98014698 4.70757551 -11.91846294 4.66093533 -9.85546875 4.609375 C-8.61434326 4.58842773 -7.37321777 4.56748047 -6.09448242 4.54589844 C-2.89941778 4.29916605 -2.89941778 4.29916605 -1.0715332 1.96191406 C-0.71792725 1.31448242 -0.36432129 0.66705078 0 0 Z " fill="#D0CEC7" transform="translate(173,88)"/>
<path d="M0 0 C1.98 0 3.96 0 6 0 C6 4.29 6 8.58 6 13 C8.64 13 11.28 13 14 13 C14 8.71 14 4.42 14 0 C15.65 0 17.3 0 19 0 C19 8.58 19 17.16 19 26 C18.34 26 17.68 26 17 26 C17.12375 27.3921875 17.12375 27.3921875 17.25 28.8125 C17 32 17 32 15.4375 33.875 C11.21718865 35.82283601 7.33259519 35.4441984 3 34 C1.64560332 31.29120665 1.93498549 28.99066732 2 26 C1.34 26 0.68 26 0 26 C0 17.42 0 8.84 0 0 Z " fill="#27A6C0" transform="translate(76,104)"/>
<path d="M0 0 C3.02419525 0.58803797 6.01758453 1.22678118 9 2 C9 2.66 9 3.32 9 4 C5.98968256 4.93423645 5.13349732 5.04449911 2 4 C1.67 5.32 1.34 6.64 1 8 C0.01 7.67 -0.98 7.34 -2 7 C-2.33 8.65 -2.66 10.3 -3 12 C-4.65 12.33 -6.3 12.66 -8 13 C-8.66 11.68 -9.32 10.36 -10 9 C-10.99 9 -11.98 9 -13 9 C-13 7.35 -13 5.7 -13 4 C-14.89646998 4.11493757 -16.79218332 4.24239642 -18.6875 4.375 C-20.27111328 4.47941406 -20.27111328 4.47941406 -21.88671875 4.5859375 C-24.91903011 4.98923111 -27.19834212 5.82588102 -30 7 C-30.99 7 -31.98 7 -33 7 C-33.0928125 8.60875 -33.0928125 8.60875 -33.1875 10.25 C-34 14 -34 14 -36.0625 16.4375 C-40.11241913 18.5917123 -42.43160539 18.4350852 -47 18 C-47.62777344 17.61457031 -48.25554687 17.22914062 -48.90234375 16.83203125 C-51.07501543 15.71211846 -51.07501543 15.71211846 -53.65625 16.86328125 C-54.5946875 17.34152344 -55.533125 17.81976563 -56.5 18.3125 C-59.66406316 19.89887782 -62.51868962 21.3020958 -66 22 C-65.5625 19.25 -65.5625 19.25 -64 16 C-60.21505978 13.5980187 -56.50026073 12 -52 12 C-51.67 9.36 -51.34 6.72 -51 4 C-56.61 4 -62.22 4 -68 4 C-68 3.67 -68 3.34 -68 3 C-67.25133163 2.98969254 -66.50266327 2.97938507 -65.73130798 2.96876526 C-58.6549507 2.87054167 -51.57867214 2.76799337 -44.50244808 2.66066074 C-40.86502369 2.60563864 -37.22759102 2.55225341 -33.59008789 2.50268555 C-30.07574013 2.45473439 -26.56148227 2.40238353 -23.04724312 2.34705925 C-21.06270244 2.31694284 -19.07809533 2.29131188 -17.0934906 2.26576233 C-11.31010031 2.17126943 -5.69607853 2.0427349 0 1 C0 0.67 0 0.34 0 0 Z " fill="#435055" transform="translate(120,70)"/>
<path d="M0 0 C1.6875 0.125 1.6875 0.125 4 1 C5.19358114 2.39251133 6.38009374 3.79278445 7.50390625 5.2421875 C9.81575249 7.95845593 12.51673959 10.18055904 15.23046875 12.484375 C17 14 17 14 19 16 C21.03606449 16.22622939 23.07221827 16.45179564 25.109375 16.66796875 C27.64906068 17.11398793 28.46447844 17.95263792 30 20 C30.825 20.78375 31.65 21.5675 32.5 22.375 C34.90704291 24.90239505 36.62710012 26.79656696 38 30 C37.6875 33.8125 37.6875 33.8125 37 37 C35.35 37.66 33.7 38.32 32 39 C32 38.34 32 37.68 32 37 C31.236875 37.04125 30.47375 37.0825 29.6875 37.125 C27 37 27 37 24 35 C24 35.66 24 36.32 24 37 C25.98 37.66 27.96 38.32 30 39 C30 39.33 30 39.66 30 40 C23.18940937 40.3095723 23.18940937 40.3095723 20 38 C17.00157315 33.96309361 16.7523562 31.14662965 16.8125 26.1875 C16.55361354 20.92163922 16.05500097 18.16426731 12.25 14.4375 C10.8529266 13.26785715 9.43750995 12.11957296 8 11 C6.33333333 9.33333333 4.66666667 7.66666667 3 6 C2.401875 5.46375 1.80375 4.9275 1.1875 4.375 C0 3 0 3 0 0 Z " fill="#D5DFDD" transform="translate(18,98)"/>
<path d="M0 0 C0.74362793 0.01047363 1.48725586 0.02094727 2.25341797 0.03173828 C3.46191406 0.04140625 3.46191406 0.04140625 4.69482422 0.05126953 C5.95746094 0.07640625 5.95746094 0.07640625 7.24560547 0.10205078 C8.51984375 0.11558594 8.51984375 0.11558594 9.81982422 0.12939453 C11.9202043 0.15299431 14.02043991 0.18886595 16.12060547 0.22705078 C15.79060547 2.86705078 15.46060547 5.50705078 15.12060547 8.22705078 C13.83863281 8.66404297 13.83863281 8.66404297 12.53076172 9.10986328 C10.87367187 9.72474609 10.87367187 9.72474609 9.18310547 10.35205078 C8.08095703 10.74650391 6.97880859 11.14095703 5.84326172 11.54736328 C4.94478516 12.10166016 4.04630859 12.65595703 3.12060547 13.22705078 C2.35447164 16.24501459 2.35447164 16.24501459 2.12060547 19.22705078 C-0.84012762 21.31302182 -2.80685277 22.22705078 -6.44189453 22.22705078 C-9.90674012 20.80557567 -11.65241406 19.24002437 -13.87939453 16.22705078 C-13.94902117 12.25833211 -13.57734365 10.12441394 -11.12939453 6.97705078 C-8.80857579 5.17196954 -6.42180587 3.69897313 -3.87939453 2.22705078 C-1.87939453 0.22705078 -1.87939453 0.22705078 0 0 Z M-6.87939453 12.22705078 C-6.87939453 13.21705078 -6.87939453 14.20705078 -6.87939453 15.22705078 C-5.88939453 15.22705078 -4.89939453 15.22705078 -3.87939453 15.22705078 C-4.20939453 14.23705078 -4.53939453 13.24705078 -4.87939453 12.22705078 C-5.53939453 12.22705078 -6.19939453 12.22705078 -6.87939453 12.22705078 Z " fill="#DCCBB1" transform="translate(52.87939453125,73.77294921875)"/>
<path d="M0 0 C0.66 0 1.32 0 2 0 C1.67 1.98 1.34 3.96 1 6 C2.98 6 4.96 6 7 6 C7 4.35 7 2.7 7 1 C7.66 1 8.32 1 9 1 C9.33 3.97 9.66 6.94 10 10 C10.66 8.68 11.32 7.36 12 6 C12.33 6.66 12.66 7.32 13 8 C13.66 8 14.32 8 15 8 C15 6.02 15 4.04 15 2 C15.66 2 16.32 2 17 2 C17.33 4.64 17.66 7.28 18 10 C19.60379341 10.05416188 21.20811406 10.09286638 22.8125 10.125 C23.70582031 10.14820313 24.59914063 10.17140625 25.51953125 10.1953125 C28.25402714 10.18285827 28.25402714 10.18285827 31 8 C32.32 8 33.64 8 35 8 C35.495 9.98 35.495 9.98 36 12 C36.66 12 37.32 12 38 12 C38.33 11.34 38.66 10.68 39 10 C40.98 10.33 42.96 10.66 45 11 C44.505 9.515 44.505 9.515 44 8 C45.65 7.67 47.3 7.34 49 7 C48.505 3.535 48.505 3.535 48 0 C48.99 0 49.98 0 51 0 C51.495 6.435 51.495 6.435 52 13 C50.02 13.66 48.04 14.32 46 15 C46 17.64 46 20.28 46 23 C40.69072575 23.43518641 40.69072575 23.43518641 38 23 C35.54678356 20.16346849 35 18.74876504 35 15 C34.34 15 33.68 15 33 15 C32.505 14.01 32.505 14.01 32 13 C30.79601562 13 29.59203125 13 28.3515625 13 C8.08333333 13 8.08333333 13 5.375 10.5 C4.92125 10.005 4.4675 9.51 4 9 C1.89667109 8.28552357 1.89667109 8.28552357 0 8 C0 5.36 0 2.72 0 0 Z " fill="#1B342E" transform="translate(61,128)"/>
<path d="M0 0 C1.8871875 -0.00386719 1.8871875 -0.00386719 3.8125 -0.0078125 C7 0.125 7 0.125 9 1.125 C10.62268991 1.22111752 12.24947306 1.25482352 13.875 1.25 C14.73867187 1.25257812 15.60234375 1.25515625 16.4921875 1.2578125 C18.80665971 1.13523921 20.78289116 0.77466445 23 0.125 C22.69607391 2.96164347 22.00666252 4.11769272 20.0625 6.25 C15.535266 9.02177592 10.32052413 10.125 5 10.125 C5 9.465 5 8.805 5 8.125 C4.38125 7.815625 3.7625 7.50625 3.125 7.1875 C1.75 6.5 0.375 5.8125 -1 5.125 C-1 5.785 -1 6.445 -1 7.125 C-4.06807234 9.17038156 -7.09524574 9.65498596 -10.76171875 9.5859375 C-15.09347389 8.69388321 -18.73773334 6.03989567 -22 3.125 C-22 2.465 -22 1.805 -22 1.125 C-21.08476563 1.13660156 -20.16953125 1.14820312 -19.2265625 1.16015625 C-18.03804688 1.16917969 -16.84953125 1.17820312 -15.625 1.1875 C-13.84996094 1.20490234 -13.84996094 1.20490234 -12.0390625 1.22265625 C-7.88478588 1.08916407 -4.35396955 -0.00892207 0 0 Z " fill="#987857" transform="translate(97,91.875)"/>
<path d="M0 0 C0.66 0.33 1.32 0.66 2 1 C2.33 1.99 2.66 2.98 3 4 C8.27559906 7.76828504 11.57017268 8.52703503 18 8 C20.35529281 7.58268982 20.35529281 7.58268982 22 7 C22 6.34 22 5.68 22 5 C24 6 26 7 28 8 C28 8.66 28 9.32 28 10 C23.69214025 11.35148541 20.58042408 12 16 12 C16 16.29 16 20.58 16 25 C13.36 25 10.72 25 8 25 C8 20.71 8 16.42 8 12 C4.97265625 11.77213542 1.9453125 11.54427083 -1.08203125 11.31640625 C-4 11 -4 11 -7 10 C-7 9.34 -7 8.68 -7 8 C-5.35 7.67 -3.7 7.34 -2 7 C-2.04125 6.21625 -2.0825 5.4325 -2.125 4.625 C-2 2 -2 2 0 0 Z " fill="#ECD5B5" transform="translate(74,92)"/>
<path d="M0 0 C2.475 0.495 2.475 0.495 5 1 C5.02692484 3.29160319 5.04636124 5.58329546 5.0625 7.875 C5.07410156 9.15117188 5.08570313 10.42734375 5.09765625 11.7421875 C5 15 5 15 4 17 C2.35 16.67 0.7 16.34 -1 16 C-1 15.34 -1 14.68 -1 14 C-5.29 14 -9.58 14 -14 14 C-14.66 12.35 -15.32 10.7 -16 9 C-21.61 8.67 -27.22 8.34 -33 8 C-33 7.67 -33 7.34 -33 7 C-32.10692139 6.93006836 -31.21384277 6.86013672 -30.29370117 6.78808594 C-26.97670463 6.51949623 -23.66199401 6.23438657 -20.34741211 5.93798828 C-18.91340464 5.81317922 -17.47880782 5.69495751 -16.04370117 5.58349609 C-13.97904682 5.42198281 -11.91768148 5.23677868 -9.85546875 5.046875 C-8.61434326 4.94213867 -7.37321777 4.83740234 -6.09448242 4.72949219 C-2.90322621 4.27924379 -2.90322621 4.27924379 -1.0715332 1.93457031 C-0.71792725 1.29616211 -0.36432129 0.65775391 0 0 Z " fill="#D4DCDE" transform="translate(173,88)"/>
<path d="M0 0 C2.8125 1.8125 2.8125 1.8125 5 5 C5.57430948 8.72496054 5.71675625 12.2907864 5 16 C1.85388747 18.09740836 1.08811922 18.25328219 -2.5 18.1875 C-3.2734375 18.18105469 -4.046875 18.17460938 -4.84375 18.16796875 C-7 18 -7 18 -10 17 C-10.13536022 14.91846065 -10.23215465 12.83438794 -10.3125 10.75 C-10.37050781 9.58984375 -10.42851563 8.4296875 -10.48828125 7.234375 C-10 4 -10 4 -7.63671875 1.61328125 C-4.63687687 -0.22217756 -3.43127101 -0.77203598 0 0 Z " fill="#EBE3DE" transform="translate(101,44)"/>
<path d="M0 0 C3.02419525 0.58803797 6.01758453 1.22678118 9 2 C9 2.66 9 3.32 9 4 C5.98968256 4.93423645 5.13349732 5.04449911 2 4 C1.67 5.32 1.34 6.64 1 8 C0.01 7.67 -0.98 7.34 -2 7 C-2.33 8.65 -2.66 10.3 -3 12 C-4.65 12.33 -6.3 12.66 -8 13 C-8.66 11.68 -9.32 10.36 -10 9 C-10.99 9 -11.98 9 -13 9 C-13 7.35 -13 5.7 -13 4 C-31.15 4 -49.3 4 -68 4 C-68 3.67 -68 3.34 -68 3 C-67.25133163 2.98969254 -66.50266327 2.97938507 -65.73130798 2.96876526 C-58.6549507 2.87054167 -51.57867214 2.76799337 -44.50244808 2.66066074 C-40.86502369 2.60563864 -37.22759102 2.55225341 -33.59008789 2.50268555 C-30.07574013 2.45473439 -26.56148227 2.40238353 -23.04724312 2.34705925 C-21.06270244 2.31694284 -19.07809533 2.29131188 -17.0934906 2.26576233 C-11.31010031 2.17126943 -5.69607853 2.0427349 0 1 C0 0.67 0 0.34 0 0 Z " fill="#364D48" transform="translate(120,70)"/>
<path d="M0 0 C2.64 0.33 5.28 0.66 8 1 C8.33 2.98 8.66 4.96 9 7 C10.32 7 11.64 7 13 7 C13.33 5.02 13.66 3.04 14 1 C14.99 1 15.98 1 17 1 C17.33 1.99 17.66 2.98 18 4 C20.475 4.495 20.475 4.495 23 5 C22.67 5.66 22.34 6.32 22 7 C20.35 7 18.7 7 17 7 C16.67 8.98 16.34 10.96 16 13 C16.66 13.33 17.32 13.66 18 14 C15.5735637 15.52775619 14.39107497 16.04888437 11.5 15.6875 C10.01827475 15.28002556 8.53829475 14.86595654 7.0625 14.4375 C4.35333335 13.86282829 1.76027159 13.93726655 -1 14 C-1 13.34 -1 12.68 -1 12 C-1.66 11.67 -2.32 11.34 -3 11 C-1.7934375 10.319375 -1.7934375 10.319375 -0.5625 9.625 C2.08856572 8.25274335 2.08856572 8.25274335 3 6 C2.01 6 1.02 6 0 6 C0 4.02 0 2.04 0 0 Z " fill="#31545C" transform="translate(118,100)"/>
<path d="M0 0 C1.75 1.4375 1.75 1.4375 2.5625 3.625 C2.78891298 7.02119464 2.34013922 10.09337773 1.75 13.4375 C-4.42794486 15.61795113 -4.42794486 15.61795113 -7.8125 14.875 C-10.95350771 13.02261084 -13.51682708 10.85286212 -16.25 8.4375 C-15.25 5.4375 -15.25 5.4375 -13.578125 4.33984375 C-11.47292524 3.36242957 -9.36751866 2.38797713 -7.25 1.4375 C-5.88875 0.756875 -5.88875 0.756875 -4.5 0.0625 C-2.25 -0.5625 -2.25 -0.5625 0 0 Z " fill="#ECD6BC" transform="translate(71.25,85.5625)"/>
<path d="M0 0 C1.64510941 0.00015915 3.29022379 0.00585551 4.93530273 0.01586914 C6.23164894 0.01799156 6.23164894 0.01799156 7.55418396 0.02015686 C10.32578941 0.025773 13.09731528 0.0383282 15.86889648 0.05102539 C17.74324428 0.05603831 19.61759334 0.06060158 21.49194336 0.06469727 C26.09679192 0.07574767 30.70158069 0.09302309 35.30639648 0.11352539 C35.92477134 2.35513423 36.54305154 4.5967681 37.16064453 6.83859253 C37.6352478 8.55651731 38.11490712 10.27304731 38.59741211 11.98876953 C39.90810403 16.8565337 40.57990742 21.07408638 40.30639648 26.11352539 C38.30639648 23.11352539 38.30639648 23.11352539 38.30639648 20.11352539 C37.64639648 19.78352539 36.98639648 19.45352539 36.30639648 19.11352539 C35.96264648 17.29321289 35.96264648 17.29321289 35.80639648 14.98852539 C35.5033835 10.60998774 34.58581241 7.59148113 33.30639648 3.11352539 C21.75639648 3.11352539 10.20639648 3.11352539 -1.69360352 3.11352539 C-1.69360352 3.77352539 -1.69360352 4.43352539 -1.69360352 5.11352539 C-2.35360352 5.11352539 -3.01360352 5.11352539 -3.69360352 5.11352539 C-3.80317383 5.79157227 -3.91274414 6.46961914 -4.02563477 7.16821289 C-6.23561387 20.14061055 -6.23561387 20.14061055 -8.69360352 26.11352539 C-9.35360352 26.44352539 -10.01360352 26.77352539 -10.69360352 27.11352539 C-10.08576319 21.0834731 -8.86195306 15.49618193 -7.19360352 9.67602539 C-6.96801758 8.86198242 -6.74243164 8.04793945 -6.51000977 7.20922852 C-4.5168528 0.13882851 -4.5168528 0.13882851 0 0 Z " fill="#163135" transform="translate(69.693603515625,18.886474609375)"/>
<path d="M0 0 C1.39120471 0.00015906 2.78241534 0.00585033 4.17358398 0.01586914 C4.90463852 0.01728409 5.63569305 0.01869904 6.38890076 0.02015686 C8.73253406 0.02577131 11.07607313 0.03832617 13.41967773 0.05102539 C15.00496282 0.05603853 16.59024939 0.06060176 18.17553711 0.06469727 C22.06945383 0.07574542 25.96329979 0.09301967 29.85717773 0.11352539 C30.05376581 1.52895954 30.23905319 2.9459657 30.41967773 4.36352539 C30.57629883 5.54688477 30.57629883 5.54688477 30.73608398 6.75415039 C30.85717773 9.11352539 30.85717773 9.11352539 29.85717773 13.11352539 C11.04717773 13.60852539 11.04717773 13.60852539 -8.14282227 14.11352539 C-3.84291109 0.13881408 -3.84291109 0.13881408 0 0 Z M-2.14282227 2.11352539 C-2.14282227 2.77352539 -2.14282227 3.43352539 -2.14282227 4.11352539 C-2.80282227 4.11352539 -3.46282227 4.11352539 -4.14282227 4.11352539 C-4.14282227 6.42352539 -4.14282227 8.73352539 -4.14282227 11.11352539 C6.74717773 11.11352539 17.63717773 11.11352539 28.85717773 11.11352539 C28.36217773 6.65852539 28.36217773 6.65852539 27.85717773 2.11352539 C17.95717773 2.11352539 8.05717773 2.11352539 -2.14282227 2.11352539 Z " fill="#B04121" transform="translate(61.142822265625,47.886474609375)"/>
<path d="M0 0 C0.66 0 1.32 0 2 0 C2.48736475 6.70126536 1.07708804 11.06561592 -2 17 C-3.60379341 17.05416188 -5.20811406 17.09286638 -6.8125 17.125 C-7.70582031 17.14820312 -8.59914063 17.17140625 -9.51953125 17.1953125 C-12 17 -12 17 -15 15 C-14.67 12.69 -14.34 10.38 -14 8 C-13.34 8.33 -12.68 8.66 -12 9 C-10.89363605 6.60931266 -10.89363605 6.60931266 -10 4 C-10.33 3.34 -10.66 2.68 -11 2 C-10.01 2 -9.02 2 -8 2 C-7.01 3.485 -7.01 3.485 -6 5 C-4.35 4.67 -2.7 4.34 -1 4 C-0.67 2.68 -0.34 1.36 0 0 Z " fill="#F1D7BA" transform="translate(118,77)"/>
<path d="M0 0 C1 1.33333333 2 2.66666667 3 4 C3.99 4 4.98 4 6 4 C6.66 3.34 7.32 2.68 8 2 C10.48772258 5.2837938 11.03180444 6.61198583 10.6875 10.8125 C10.460625 11.864375 10.23375 12.91625 10 14 C8.35 14.66 6.7 15.32 5 16 C5 15.34 5 14.68 5 14 C3.9171875 14.12375 3.9171875 14.12375 2.8125 14.25 C-1.00896512 13.91031421 -2.41139407 12.80432309 -5 10 C-6 6.4375 -6 6.4375 -6 3 C-4.14008739 0.11713545 -3.48578837 0 0 0 Z " fill="#C6A78E" transform="translate(45,121)"/>
<path d="M0 0 C0.66 0.66 1.32 1.32 2 2 C1.625 4.125 1.625 4.125 1 6 C1.99 6 2.98 6 4 6 C3 9 3 9 0 11 C-3.6875 10.625 -3.6875 10.625 -7 10 C-6.67 10.99 -6.34 11.98 -6 13 C-5.92970879 15.57265818 -5.90629168 18.11641431 -5.9375 20.6875 C-5.94201172 21.38939453 -5.94652344 22.09128906 -5.95117188 22.81445312 C-5.96293073 24.54300538 -5.98086546 26.27151365 -6 28 C-6.66 28 -7.32 28 -8 28 C-7.94779297 27.07767578 -7.94779297 27.07767578 -7.89453125 26.13671875 C-7.85392578 24.92435547 -7.85392578 24.92435547 -7.8125 23.6875 C-7.77769531 22.88699219 -7.74289063 22.08648437 -7.70703125 21.26171875 C-7.77638357 18.89980293 -7.77638357 18.89980293 -9.58203125 17.4453125 C-10.04996094 16.96835938 -10.51789063 16.49140625 -11 16 C-10.41625681 14.0217592 -9.83043752 12.04399822 -9.21875 10.07421875 C-8.80252597 7.96121567 -8.80252597 7.96121567 -9.96875 6.14453125 C-11.50649921 4.28953327 -11.50649921 4.28953327 -14 2 C-13 1 -13 1 -10.56640625 0.8671875 C-9.07947266 0.87105469 -9.07947266 0.87105469 -7.5625 0.875 C-6.57378906 0.87242188 -5.58507812 0.86984375 -4.56640625 0.8671875 C-2 1 -2 1 0 2 C0 1.34 0 0.68 0 0 Z " fill="#143B41" transform="translate(117,100)"/>
<path d="M0 0 C0.66 0 1.32 0 2 0 C1.67 1.98 1.34 3.96 1 6 C2.98 6 4.96 6 7 6 C7 4.35 7 2.7 7 1 C7.66 1 8.32 1 9 1 C9.33 3.97 9.66 6.94 10 10 C10.66 8.68 11.32 7.36 12 6 C12.33 6.66 12.66 7.32 13 8 C13.66 8 14.32 8 15 8 C15 6.02 15 4.04 15 2 C15.66 2 16.32 2 17 2 C17.33 4.64 17.66 7.28 18 10 C25.56407533 10.20589721 25.56407533 10.20589721 33 9 C32.67 10.32 32.34 11.64 32 13 C8.08333333 13 8.08333333 13 5.375 10.5 C4.92125 10.005 4.4675 9.51 4 9 C1.89667109 8.28552357 1.89667109 8.28552357 0 8 C0 5.36 0 2.72 0 0 Z " fill="#637B64" transform="translate(61,128)"/>
<path d="M0 0 C6.27 0 12.54 0 19 0 C19 0.33 19 0.66 19 1 C17.35 1 15.7 1 14 1 C14 5.29 14 9.58 14 14 C11.36 14 8.72 14 6 14 C6 9.71 6 5.42 6 1 C4.02 1 2.04 1 0 1 C0 0.67 0 0.34 0 0 Z " fill="#A5C9D0" transform="translate(76,103)"/>
<path d="M0 0 C3.0625 0.25 3.0625 0.25 6.0625 2.25 C6.35546875 4.4140625 6.35546875 4.4140625 6.25 6.875 C6.22292969 7.69226563 6.19585937 8.50953125 6.16796875 9.3515625 C6.13316406 9.97804687 6.09835938 10.60453125 6.0625 11.25 C3.07655576 12.74297212 0.35396376 12.36755228 -2.9375 12.25 C-3.5975 11.92 -4.2575 11.59 -4.9375 11.25 C-4.99149736 9.79207116 -5.03029177 8.33357288 -5.0625 6.875 C-5.09730469 5.65683594 -5.09730469 5.65683594 -5.1328125 4.4140625 C-4.80635967 0.79696515 -3.46492356 0.29488711 0 0 Z " fill="#EEF5F7" transform="translate(84.9375,126.75)"/>
<path d="M0 0 C2.9375 0.375 2.9375 0.375 6 1 C7.52491998 4.04983996 7.23562548 6.6423369 7 10 C5.9375 11.9375 5.9375 11.9375 4 13 C-0.36706908 13.38991688 -2.30513897 13.46324069 -6 11 C-5.34 11 -4.68 11 -4 11 C-4 9.35 -4 7.7 -4 6 C-2.68 5.67 -1.36 5.34 0 5 C0 3.35 0 1.7 0 0 Z " fill="#EFA169" transform="translate(97,80)"/>
<path d="M0 0 C2.31 0 4.62 0 7 0 C8.73563661 4.45228522 10.05610147 8.28050734 11 13 C7.37 13 3.74 13 0 13 C0 8.71 0 4.42 0 0 Z " fill="#CB2F05" transform="translate(105,48)"/>
<path d="M0 0 C4.29 0 8.58 0 13 0 C13 2.31 13 4.62 13 7 C11.3767313 7.6708712 9.75132422 8.33657029 8.125 9 C6.76761719 9.556875 6.76761719 9.556875 5.3828125 10.125 C3 11 3 11 1 11 C0.67 7.37 0.34 3.74 0 0 Z " fill="#EFD8BE" transform="translate(55,75)"/>
<path d="M0 0 C6.93 0.495 6.93 0.495 14 1 C12.68 3.97 11.36 6.94 10 10 C3.84765625 10.09765625 3.84765625 10.09765625 2 10 C1.67 9.67 1.34 9.34 1 9 C1 6.66666667 1 4.33333333 1 2 C0.67 1.34 0.34 0.68 0 0 Z " fill="#404A48" transform="translate(62,141)"/>
<path d="M0 0 C2.40311451 2.23738248 2.96341425 3.46340904 3.1875 6.75 C3.125625 7.4925 3.06375 8.235 3 9 C2.21625 9.309375 1.4325 9.61875 0.625 9.9375 C-1.92330128 10.92875038 -1.92330128 10.92875038 -4 12 C-4.33 11.34 -4.66 10.68 -5 10 C-6.32 10 -7.64 10 -9 10 C-9.25 6.6875 -9.25 6.6875 -9 3 C-6.37083783 -0.01866768 -3.91948001 -0.70349641 0 0 Z " fill="#F7F8F8" transform="translate(101,44)"/>
<path d="M0 0 C0.99 0 1.98 0 3 0 C3.33 0.99 3.66 1.98 4 3 C5.65 3.33 7.3 3.66 9 4 C8.67 4.66 8.34 5.32 8 6 C6.35 6 4.7 6 3 6 C2.67 7.98 2.34 9.96 2 12 C2.66 12.33 3.32 12.66 4 13 C1.48203847 14.58538318 0.32134414 15.0373656 -2.6875 14.6875 C-5 14 -5 14 -6 13 C-6.04092937 10.66702567 -6.04241723 8.33294775 -6 6 C-4.35 6 -2.7 6 -1 6 C-0.67 4.02 -0.34 2.04 0 0 Z " fill="#9E7851" transform="translate(132,101)"/>
<path d="M0 0 C-0.33 2.64 -0.66 5.28 -1 8 C1.31 8.33 3.62 8.66 6 9 C6 10.32 6 11.64 6 13 C3 15 3 15 0.625 14.9375 C-3.01427857 13.63775765 -4.70553573 12.10427518 -7 9 C-7.0625 5.3125 -7.0625 5.3125 -6 2 C-3.83076342 0.3905664 -2.68076871 0 0 0 Z " fill="#F8E26E" transform="translate(46,81)"/>
<path d="M0 0 C4.95 0 9.9 0 15 0 C14.67 1.32 14.34 2.64 14 4 C13.01 3.67 12.02 3.34 11 3 C10.67 4.65 10.34 6.3 10 8 C8.35 8.33 6.7 8.66 5 9 C4.34 7.68 3.68 6.36 3 5 C2.01 5 1.02 5 0 5 C0 3.35 0 1.7 0 0 Z " fill="#8B775E" transform="translate(107,74)"/>
<path d="M0 0 C1.6875 0.125 1.6875 0.125 4 1 C5.19358114 2.39251133 6.38009374 3.79278445 7.50390625 5.2421875 C9.81575249 7.95845593 12.51673959 10.18055904 15.23046875 12.484375 C17 14 17 14 19 16 C21.32275177 16.40047444 23.65739357 16.7397104 26 17 C26 17.33 26 17.66 26 18 C22.58152216 18.89664992 19.52929033 19.37256417 16 19 C12.75885566 16.8020467 10.46840867 14.01388291 8 11 C7.071875 10.071875 6.14375 9.14375 5.1875 8.1875 C4.465625 7.465625 3.74375 6.74375 3 6 C2.401875 5.46375 1.80375 4.9275 1.1875 4.375 C0 3 0 3 0 0 Z " fill="#B9BDBC" transform="translate(18,98)"/>
<path d="M0 0 C0.33 0 0.66 0 1 0 C1 4.95 1 9.9 1 15 C1.99 15 2.98 15 4 15 C4 14.34 4 13.68 4 13 C7.47325181 11.8422494 10.36067448 11.93133348 14 12 C14 12.66 14 13.32 14 14 C14.66 14 15.32 14 16 14 C16.66 13.34 17.32 12.68 18 12 C17.67 15.63 17.34 19.26 17 23 C16.01 23 15.02 23 14 23 C14.33 20.69 14.66 18.38 15 16 C13.52168779 15.80587819 12.04230684 15.61987869 10.5625 15.4375 C9.73878906 15.33308594 8.91507813 15.22867188 8.06640625 15.12109375 C7.04353516 15.06115234 7.04353516 15.06115234 6 15 C4.41727399 16.58272601 4.65264253 18.38034003 4.4375 20.5625 C4.31181641 21.80193359 4.31181641 21.80193359 4.18359375 23.06640625 C4.12300781 23.70449219 4.06242187 24.34257812 4 25 C2 23 2 23 1.875 19.875 C1.91625 18.92625 1.9575 17.9775 2 17 C1.34 17 0.68 17 0 17 C0 11.39 0 5.78 0 0 Z " fill="#5B9FAD" transform="translate(76,113)"/>
<path d="M0 0 C0.99 0 1.98 0 3 0 C3 4.95 3 9.9 3 15 C1.35 15.33 -0.3 15.66 -2 16 C-1.34 14.68 -0.68 13.36 0 12 C-2.31 12 -4.62 12 -7 12 C-7.80967438 9.08517222 -8.21845993 7.53886783 -7.0625 4.6875 C-6.711875 4.130625 -6.36125 3.57375 -6 3 C-7.65 3.66 -9.3 4.32 -11 5 C-10.34 4.01 -9.68 3.02 -9 2 C-7.68 2 -6.36 2 -5 2 C-5.33 4.64 -5.66 7.28 -6 10 C-5.01 10.33 -4.02 10.66 -3 11 C-3 10.01 -3 9.02 -3 8 C-2.34 8 -1.68 8 -1 8 C-1.020625 6.865625 -1.04125 5.73125 -1.0625 4.5625 C-1 1 -1 1 0 0 Z " fill="#EEDB83" transform="translate(52,78)"/>
<path d="M0 0 C2.97 0 5.94 0 9 0 C9 0.99 9 1.98 9 3 C9.66 3 10.32 3 11 3 C11 4.98 11 6.96 11 9 C5.71268058 9.43338684 5.71268058 9.43338684 3 9 C0.15942191 5.80434964 0 4.3252957 0 0 Z " fill="#2E4C51" transform="translate(96,142)"/>
<path d="M0 0 C2.31 0 4.62 0 7 0 C7 1.65 7 3.3 7 5 C7.66 5.33 8.32 5.66 9 6 C8.01 7.98 7.02 9.96 6 12 C3 8.25 3 8.25 3 6 C0.03 5.505 0.03 5.505 -3 5 C-3 6.65 -3 8.3 -3 10 C-3.66 9.67 -4.32 9.34 -5 9 C-5 7.02 -5 5.04 -5 3 C-3.35 2.67 -1.7 2.34 0 2 C0 1.34 0 0.68 0 0 Z " fill="#F6D7B8" transform="translate(100,75)"/>
<path d="M0 0 C0 1.65 0 3.3 0 5 C-9.9 4.34 -19.8 3.68 -30 3 C-30 2.67 -30 2.34 -30 2 C-19.93020011 0.64932025 -10.17758697 -0.31860272 0 0 Z " fill="#E3E6E5" transform="translate(170,93)"/>
<path d="M0 0 C0.99 0 1.98 0 3 0 C5.27837542 2.27837542 5.96646289 3.50812237 6.1875 6.75 C6.125625 7.4925 6.06375 8.235 6 9 C6.66 9.33 7.32 9.66 8 10 C8 10.99 8 11.98 8 13 C9.98 13.66 11.96 14.32 14 15 C14 15.33 14 15.66 14 16 C7.18940937 16.3095723 7.18940937 16.3095723 4 14 C0.52868609 9.757283 0.33324921 5.2745306 0 0 Z " fill="#E0DEE1" transform="translate(34,122)"/>
<path d="M0 0 C3.14581423 -0.02888514 6.29159469 -0.04675923 9.4375 -0.0625 C10.33533203 -0.07087891 11.23316406 -0.07925781 12.15820312 -0.08789062 C13.01220703 -0.09111328 13.86621094 -0.09433594 14.74609375 -0.09765625 C15.93223267 -0.10551147 15.93223267 -0.10551147 17.14233398 -0.11352539 C19 0 19 0 20 1 C20.04063832 2.66617115 20.042721 4.33388095 20 6 C17.36 6 14.72 6 12 6 C11.67 4.68 11.34 3.36 11 2 C7.04 2 3.08 2 -1 2 C-0.67 1.34 -0.34 0.68 0 0 Z " fill="#9C7953" transform="translate(139,97)"/>
<path d="M0 0 C0 1.65 0 3.3 0 5 C1.32 5 2.64 5 4 5 C4 9 4 9 2.625 10.6875 C1 12 1 12 -1 13 C-2.03295436 11.90716423 -3.05107835 10.80029421 -4.0625 9.6875 C-4.63097656 9.07261719 -5.19945312 8.45773438 -5.78515625 7.82421875 C-6.38650391 6.92123047 -6.38650391 6.92123047 -7 6 C-5.61469317 1.84407951 -4.52657396 0 0 0 Z " fill="#2B5865" transform="translate(56,114)"/>
<path d="M0 0 C0.99 0 1.98 0 3 0 C3 10.89 3 21.78 3 33 C2.01 32.67 1.02 32.34 0 32 C-0.66 33.32 -1.32 34.64 -2 36 C-3 34 -3 34 -2.125 30.9375 C-1 28 -1 28 0 27 C0.2285321 25.0769127 0.39518857 23.14639772 0.53515625 21.21484375 C0.62216797 20.04501953 0.70917969 18.87519531 0.79882812 17.66992188 C0.88583984 16.43822266 0.97285156 15.20652344 1.0625 13.9375 C1.19881836 12.08415039 1.19881836 12.08415039 1.33789062 10.19335938 C1.56267598 7.12918006 1.7831856 4.06475198 2 1 C1.34 0.67 0.68 0.34 0 0 Z " fill="#114854" transform="translate(73,103)"/>
<path d="M0 0 C0.33 0 0.66 0 1 0 C1 2.97 1 5.94 1 9 C-0.74802146 9.81674796 -2.49850189 10.62823451 -4.25 11.4375 C-5.71179688 12.11619141 -5.71179688 12.11619141 -7.203125 12.80859375 C-9.49251695 13.78382356 -11.57378746 14.4974274 -14 15 C-13.5625 12.25 -13.5625 12.25 -12 9 C-8.21505978 6.5980187 -4.50026073 5 0 5 C0 3.35 0 1.7 0 0 Z " fill="#585959" transform="translate(68,77)"/>
<path d="M0 0 C0.99 0 1.98 0 3 0 C3 0.66 3 1.32 3 2 C2.34 2 1.68 2 1 2 C1.33 3.98 1.66 5.96 2 8 C2.99 8 3.98 8 5 8 C4.67 9.32 4.34 10.64 4 12 C4 11.01 4 10.02 4 9 C3.01 9 2.02 9 1 9 C1 10.98 1 12.96 1 15 C-0.65614657 15.38218767 -2.32457024 15.71395102 -4 16 C-5 15 -5 15 -5.0625 12.4375 C-5.041875 11.633125 -5.02125 10.82875 -5 10 C-3.68 9.34 -2.36 8.68 -1 8 C-1.020625 6.865625 -1.04125 5.73125 -1.0625 4.5625 C-1 1 -1 1 0 0 Z " fill="#ADA59A" transform="translate(131,92)"/>
<path d="M0 0 C0.66 0 1.32 0 2 0 C2.16682272 4.92127034 2.24828052 8.50343896 0 13 C-1.32 13 -2.64 13 -4 13 C-4.33 11.35 -4.66 9.7 -5 8 C-6.32 7.67 -7.64 7.34 -9 7 C-9 5.68 -9 4.36 -9 3 C-9.66 2.67 -10.32 2.34 -11 2 C-10.01 2 -9.02 2 -8 2 C-7.01 3.485 -7.01 3.485 -6 5 C-4.35 4.67 -2.7 4.34 -1 4 C-0.67 2.68 -0.34 1.36 0 0 Z " fill="#E6D6C2" transform="translate(118,77)"/>
<path d="M0 0 C0.99 0 1.98 0 3 0 C4.02028865 1.31787285 5.01971384 2.65210653 6 4 C6.99 4.33 7.98 4.66 9 5 C9 5.66 9 6.32 9 7 C9.66 7 10.32 7 11 7 C10.67 8.32 10.34 9.64 10 11 C6 11 6 11 3.75 9.125 C2 7 2 7 2 5 C1.34 5 0.68 5 0 5 C-0.5625 3.0625 -0.5625 3.0625 -1 1 C-0.67 0.67 -0.34 0.34 0 0 Z " fill="#A57E54" transform="translate(42,121)"/>
<path d="M0 0 C-0.30392609 2.83664347 -0.99333748 3.99269272 -2.9375 6.125 C-7.464734 8.89677592 -12.67947587 10 -18 10 C-18 9.34 -18 8.68 -18 8 C-17.2575 7.896875 -16.515 7.79375 -15.75 7.6875 C-12.82985982 6.95746496 -11.26812446 5.93210602 -9 4 C-9.99 3.34 -10.98 2.68 -12 2 C-10.37548581 1.66430703 -8.75037083 1.3315204 -7.125 1 C-6.22007813 0.814375 -5.31515625 0.62875 -4.3828125 0.4375 C-2 0 -2 0 0 0 Z " fill="#9D8670" transform="translate(120,92)"/>
<path d="M0 0 C0.94875 0.350625 1.8975 0.70125 2.875 1.0625 C-0.875 2.1875 -0.875 2.1875 -3.125 1.0625 C-2.795 2.0525 -2.465 3.0425 -2.125 4.0625 C-2.05470879 6.63515818 -2.03129168 9.17891431 -2.0625 11.75 C-2.06701172 12.45189453 -2.07152344 13.15378906 -2.07617188 13.87695312 C-2.08793073 15.60550538 -2.10586546 17.33401365 -2.125 19.0625 C-2.785 19.0625 -3.445 19.0625 -4.125 19.0625 C-4.09019531 18.44761719 -4.05539063 17.83273438 -4.01953125 17.19921875 C-3.99246094 16.39097656 -3.96539062 15.58273438 -3.9375 14.75 C-3.90269531 13.94949219 -3.86789063 13.14898437 -3.83203125 12.32421875 C-4.18698392 9.58398416 -5.01866282 8.77078921 -7.125 7.0625 C-6.52638258 4.71078869 -5.85575648 2.3765622 -5.125 0.0625 C-3.125 -0.9375 -3.125 -0.9375 0 0 Z " fill="#133032" transform="translate(113.125,108.9375)"/>
<path d="M0 0 C1.58294782 -0.05437607 3.16644256 -0.09296271 4.75 -0.125 C5.63171875 -0.14820312 6.5134375 -0.17140625 7.421875 -0.1953125 C10.17451946 0.01322117 11.72301072 0.45490013 14 2 C15.25 5.125 15.25 5.125 16 8 C15.34 7.67 14.68 7.34 14 7 C14 6.34 14 5.68 14 5 C9.71 5 5.42 5 1 5 C0.67 3.35 0.34 1.7 0 0 Z " fill="#B8C2C0" transform="translate(158,97)"/>
<path d="M0 0 C2.31 0 4.62 0 7 0 C7.66 1.98 8.32 3.96 9 6 C8.5875 5.525625 8.175 5.05125 7.75 4.5625 C5.86673565 2.63715751 5.86673565 2.63715751 2 2 C2 4.97 2 7.94 2 11 C4.91634129 11.2502157 4.91634129 11.2502157 8 11 C8.66 10.01 9.32 9.02 10 8 C10.33 9.65 10.66 11.3 11 13 C7.37 13 3.74 13 0 13 C0 8.71 0 4.42 0 0 Z " fill="#A13E24" transform="translate(105,48)"/>
<path d="M0 0 C3 1.5 3 1.5 6 3 C6 3.66 6 4.32 6 5 C3.28598706 6.35700647 1.15153684 6.1123861 -1.8828125 6.09765625 C-3.04941406 6.09443359 -4.21601562 6.09121094 -5.41796875 6.08789062 C-6.64128906 6.07951172 -7.86460938 6.07113281 -9.125 6.0625 C-10.35605469 6.05798828 -11.58710937 6.05347656 -12.85546875 6.04882812 C-15.90369392 6.0370133 -18.95182314 6.02054028 -22 6 C-22 5.67 -22 5.34 -22 5 C-15.4 5 -8.8 5 -2 5 C-2 4.01 -2 3.02 -2 2 C-1.34 2 -0.68 2 0 2 C0 1.34 0 0.68 0 0 Z " fill="#E7E2D1" transform="translate(96,97)"/>
<path d="M0 0 C0.88042969 0.08378906 1.76085937 0.16757813 2.66796875 0.25390625 C4.41013672 0.40666016 4.41013672 0.40666016 6.1875 0.5625 C7.33605469 0.66691406 8.48460938 0.77132812 9.66796875 0.87890625 C12.68631199 0.98859985 15.08923936 0.74002389 18 0 C17.67 1.32 17.34 2.64 17 4 C11.39 4 5.78 4 0 4 C0 2.68 0 1.36 0 0 Z " fill="#AE9E92" transform="translate(76,137)"/>
<path d="M0 0 C0.99 0.33 1.98 0.66 3 1 C2.67 3.31 2.34 5.62 2 8 C1.01 8 0.02 8 -1 8 C-1 8.66 -1 9.32 -1 10 C-1.99 10 -2.98 10 -4 10 C-4 9.34 -4 8.68 -4 8 C-4.66 8 -5.32 8 -6 8 C-6 6.68 -6 5.36 -6 4 C-4.02 4 -2.04 4 0 4 C-0.33 3.01 -0.66 2.02 -1 1 C-0.67 0.67 -0.34 0.34 0 0 Z " fill="#C1C5C6" transform="translate(88,128)"/>
<path d="M0 0 C2 3 2 3 2 6 C4.31 6.33 6.62 6.66 9 7 C8.67 7.99 8.34 8.98 8 10 C6.9275 9.79375 5.855 9.5875 4.75 9.375 C1.12380904 9.0123809 -0.08291076 9.01637931 -3 11 C-3 9.35 -3 7.7 -3 6 C-2.01 5.67 -1.02 5.34 0 5 C0 3.35 0 1.7 0 0 Z " fill="#1E3F3D" transform="translate(99,130)"/>
<path d="M0 0 C0.61875 0.165 1.2375 0.33 1.875 0.5 C4.92432753 1.21748883 7.01229281 0.79672192 10 0 C10 1.32 10 2.64 10 4 C9.01 4.33 8.02 4.66 7 5 C6.67 5.66 6.34 6.32 6 7 C5.01 7 4.02 7 3 7 C3 6.34 3 5.68 3 5 C2.34 5 1.68 5 1 5 C0.67 3.35 0.34 1.7 0 0 Z " fill="#949394" transform="translate(93,53)"/>
<path d="M0 0 C3.33717549 1.3809002 5.22301036 2.8201238 7 6 C6.6875 8.25 6.6875 8.25 6 10 C4.125 9.75 4.125 9.75 2 9 C0.875 7 0.875 7 0 5 C-0.66 4.67 -1.32 4.34 -2 4 C-1.34 2.68 -0.68 1.36 0 0 Z " fill="#DCCDB7" transform="translate(45,116)"/>
<path d="M0 0 C0 0.99 0 1.98 0 3 C-15.74487472 3.18451025 -15.74487472 3.18451025 -23 2 C-23 1.67 -23 1.34 -23 1 C-15.31068715 -0.06059488 -7.75493514 -0.09928082 0 0 Z " fill="#35352C" transform="translate(117,61)"/>
<path d="M0 0 C2.31 0 4.62 0 7 0 C7.33 1.32 7.66 2.64 8 4 C7.01 4 6.02 4 5 4 C4.01 5.485 4.01 5.485 3 7 C1.68 6.67 0.36 6.34 -1 6 C-0.67 4.02 -0.34 2.04 0 0 Z " fill="#C3A88F" transform="translate(135,107)"/>
<path d="M0 0 C2.9375 0.375 2.9375 0.375 6 1 C7.4783226 3.95664519 7.06032783 6.74229737 7 10 C6.67 10 6.34 10 6 10 C5.34 8.02 4.68 6.04 4 4 C3.34 4.66 2.68 5.32 2 6 C1.34 6.12375 0.68 6.2475 0 6.375 C-2.20265017 6.82123176 -2.20265017 6.82123176 -3.25 9.0625 C-3.4975 9.701875 -3.745 10.34125 -4 11 C-4 9.35 -4 7.7 -4 6 C-2.68 5.67 -1.36 5.34 0 5 C0 3.35 0 1.7 0 0 Z " fill="#F1AB78" transform="translate(97,80)"/>
<path d="M0 0 C1.4606285 2.64738916 2 3.89448334 2 7 C-4.4 7.49230769 -4.4 7.49230769 -7.4375 5 C-7.953125 4.34 -8.46875 3.68 -9 3 C-5.92382812 2.70703125 -5.92382812 2.70703125 -2.84765625 2.4140625 C-2.23792969 2.27742188 -1.62820312 2.14078125 -1 2 C-0.67 1.34 -0.34 0.68 0 0 Z " fill="#263C40" transform="translate(110,41)"/>
<path d="M0 0 C10.89 0 21.78 0 33 0 C33 0.33 33 0.66 33 1 C17.655 1.495 17.655 1.495 2 2 C1.67 2.66 1.34 3.32 1 4 C0.34 4 -0.32 4 -1 4 C-0.67 2.68 -0.34 1.36 0 0 Z " fill="#90371F" transform="translate(58,48)"/>
<path d="M0 0 C1.32 0 2.64 0 4 0 C4.33 1.32 4.66 2.64 5 4 C5.66 4 6.32 4 7 4 C7.33 3.34 7.66 2.68 8 2 C8.66 2.66 9.32 3.32 10 4 C12.06874034 4.6425235 12.06874034 4.6425235 14 5 C14.33 6.32 14.66 7.64 15 9 C14.34 9 13.68 9 13 9 C13 8.01 13 7.02 13 6 C9.37 6.33 5.74 6.66 2 7 C2 5.02 2 3.04 2 1 C1.34 0.67 0.68 0.34 0 0 Z " fill="#374235" transform="translate(92,136)"/>
<path d="M0 0 C1.65 0.33 3.3 0.66 5 1 C5 3.64 5 6.28 5 9 C3 6 3 6 3 2 C2.34 2 1.68 2 1 2 C1 3.65 1 5.3 1 7 C0.01 7 -0.98 7 -2 7 C-2.66 7.66 -3.32 8.32 -4 9 C-3.46930939 5.17902761 -2.50298434 2.93828597 0 0 Z " fill="#CFD5D9" transform="translate(173,88)"/>
<path d="M0 0 C0.99 0 1.98 0 3 0 C3.33 0.99 3.66 1.98 4 3 C5.65 3.33 7.3 3.66 9 4 C8.67 4.66 8.34 5.32 8 6 C6.35 6 4.7 6 3 6 C3 6.66 3 7.32 3 8 C1.68 7.67 0.36 7.34 -1 7 C-0.67 4.69 -0.34 2.38 0 0 Z " fill="#A27448" transform="translate(132,101)"/>
<path d="M0 0 C3.63 0 7.26 0 11 0 C9.515 2.475 9.515 2.475 8 5 C7.67 4.34 7.34 3.68 7 3 C4.69 3 2.38 3 0 3 C0 2.01 0 1.02 0 0 Z " fill="#595D51" transform="translate(65,142)"/>
<path d="M0 0 C2 2 2 2 2.125 4.625 C2.08375 5.40875 2.0425 6.1925 2 7 C-0.95664519 8.4783226 -3.74229737 8.06032783 -7 8 C-7 5.69 -7 3.38 -7 1 C-5 4 -5 4 -5 6 C-3.35 6 -1.7 6 0 6 C0 4.02 0 2.04 0 0 Z " fill="#B4C18A" transform="translate(108,128)"/>
<path d="M0 0 C1.32 1.32 2.64 2.64 4 4 C2.92598892 6.91517292 2.22189824 8.77810176 0 11 C-3.125 11.125 -3.125 11.125 -6 11 C-3 9 -3 9 0 8 C0.33 7.01 0.66 6.02 1 5 C0.34 5 -0.32 5 -1 5 C-0.67 3.35 -0.34 1.7 0 0 Z " fill="#B49F88" transform="translate(52,123)"/>
<path d="M0 0 C3.02419525 0.58803797 6.01758453 1.22678118 9 2 C9 2.66 9 3.32 9 4 C5.34606463 5.26823485 2.50929974 4.75715321 -1.25 4.0625 C-2.32765625 3.86785156 -3.4053125 3.67320313 -4.515625 3.47265625 C-5.33546875 3.31667969 -6.1553125 3.16070312 -7 3 C-7 2.67 -7 2.34 -7 2 C-3.535 1.505 -3.535 1.505 0 1 C0 0.67 0 0.34 0 0 Z " fill="#244347" transform="translate(120,70)"/>
<path d="M0 0 C1.62463842 -0.05395478 3.24978541 -0.09277195 4.875 -0.125 C5.77992188 -0.14820312 6.68484375 -0.17140625 7.6171875 -0.1953125 C10 0 10 0 12 2 C11.34 2 10.68 2 10 2 C9.34 3.65 8.68 5.3 8 7 C7.79375 6.38125 7.5875 5.7625 7.375 5.125 C5.45224112 2.15346355 3.33405473 1.86975341 0 1 C0 0.67 0 0.34 0 0 Z " fill="#E8D5C0" transform="translate(136,104)"/>
<path d="M0 0 C0.33 1.32 0.66 2.64 1 4 C1.66 4 2.32 4 3 4 C3.33 5.32 3.66 6.64 4 8 C5.11375 7.95875 6.2275 7.9175 7.375 7.875 C11 8 11 8 13 10 C9.46277016 10.90487275 7.6285798 11.28571809 4.25 9.75 C2 8 2 8 0 5 C-0.125 2.3125 -0.125 2.3125 0 0 Z " fill="#F3E593" transform="translate(39,85)"/>
<path d="M0 0 C0.99 0.33 1.98 0.66 3 1 C0.03 3.64 -2.94 6.28 -6 9 C-4.68 9.66 -3.36 10.32 -2 11 C-4.64 11 -7.28 11 -10 11 C-6.79239749 7.19364503 -3.59253891 3.45436433 0 0 Z " fill="#0B2426" transform="translate(51,63)"/>
<path d="M0 0 C2 2 4 4 6 6 C7.99952758 6.04346799 10.00039988 6.039992 12 6 C12.99 6 13.98 6 15 6 C15 6.66 15 7.32 15 8 C13.35 8.66 11.7 9.32 10 10 C10 9.34 10 8.68 10 8 C8.9171875 8.12375 8.9171875 8.12375 7.8125 8.25 C4.08140949 7.91834751 2.58224282 6.65602119 0 4 C0 2.68 0 1.36 0 0 Z " fill="#CFB8B0" transform="translate(40,127)"/>
<path d="M0 0 C0.66 0.66 1.32 1.32 2 2 C1.625 4.125 1.625 4.125 1 6 C1.99 6 2.98 6 4 6 C3 9 3 9 0.9375 10.1875 C0.298125 10.455625 -0.34125 10.72375 -1 11 C-1.66 8.69 -2.32 6.38 -3 4 C-2.34 4 -1.68 4 -1 4 C-0.67 2.68 -0.34 1.36 0 0 Z " fill="#18424B" transform="translate(117,100)"/>
<path d="M0 0 C3.3 0 6.6 0 10 0 C10.33 0.99 10.66 1.98 11 3 C7.7 3 4.4 3 1 3 C0.67 2.01 0.34 1.02 0 0 Z " fill="#CBDBDD" transform="translate(137,101)"/>
<path d="M0 0 C0.7734375 0.7115625 0.7734375 0.7115625 1.5625 1.4375 C4.66782675 3.42809407 7.36632504 3.65060818 11 4 C11 4.33 11 4.66 11 5 C9.37675914 5.22162329 7.751279 5.42689803 6.125 5.625 C4.76761719 5.79902344 4.76761719 5.79902344 3.3828125 5.9765625 C2.59648438 5.98429687 1.81015625 5.99203125 1 6 C0.34 5.34 -0.32 4.68 -1 4 C-0.625 1.875 -0.625 1.875 0 0 Z " fill="#ABB7B7" transform="translate(33,111)"/>
<path d="M0 0 C0.33 0.99 0.66 1.98 1 3 C1.66 3 2.32 3 3 3 C3 3.66 3 4.32 3 5 C3.99 5 4.98 5 6 5 C6 4.34 6 3.68 6 3 C7.32 3 8.64 3 10 3 C10 3.66 10 4.32 10 5 C7.01405576 6.49297212 4.29146376 6.11755228 1 6 C0.34 5.67 -0.32 5.34 -1 5 C-0.67 3.35 -0.34 1.7 0 0 Z " fill="#EFEBE6" transform="translate(81,133)"/>
<path d="M0 0 C0.66 0 1.32 0 2 0 C2.66 2.64 3.32 5.28 4 8 C3.01 8.33 2.02 8.66 1 9 C0.01 8.34 -0.98 7.68 -2 7 C-1.34 4.69 -0.68 2.38 0 0 Z " fill="#DEE5E9" transform="translate(174,90)"/>
<path d="M0 0 C0 0.99 0 1.98 0 3 C0.66 3.33 1.32 3.66 2 4 C-3.75 7 -3.75 7 -6 7 C-5.39816251 4.97954558 -4.72693904 2.97888961 -4 1 C-2 0 -2 0 0 0 Z " fill="#5E5E53" transform="translate(60,85)"/>
<path d="M0 0 C1.65 0 3.3 0 5 0 C6.4606285 2.64738916 7 3.89448334 7 7 C6.01 7.33 5.02 7.66 4 8 C3.34 7.34 2.68 6.68 2 6 C2.375 3.375 2.375 3.375 3 1 C2.01 0.67 1.02 0.34 0 0 Z " fill="#F3DDAE" transform="translate(44,79)"/>
<path d="M0 0 C2.31 0 4.62 0 7 0 C6.67 1.32 6.34 2.64 6 4 C4.02 4 2.04 4 0 4 C0 2.68 0 1.36 0 0 Z " fill="#295969" transform="translate(65,145)"/>
<path d="M0 0 C0 2.97 0 5.94 0 9 C-0.99 9 -1.98 9 -3 9 C-3.33 6.36 -3.66 3.72 -4 1 C-2 0 -2 0 0 0 Z " fill="#285869" transform="translate(125,103)"/>
<path d="M0 0 C0.66 0.33 1.32 0.66 2 1 C1.34 2.65 0.68 4.3 0 6 C-0.66 6 -1.32 6 -2 6 C-2 6.66 -2 7.32 -2 8 C-4.97 7.67 -7.94 7.34 -11 7 C-11 6.67 -11 6.34 -11 6 C-9.741875 5.7525 -8.48375 5.505 -7.1875 5.25 C-4.16442273 4.51162006 -3.1940517 4.20617994 -1 1.875 C-0.67 1.25625 -0.34 0.6375 0 0 Z " fill="#DCCBBA" transform="translate(86,82)"/>
<path d="M0 0 C-0.33 1.32 -0.66 2.64 -1 4 C-2.65 4.33 -4.3 4.66 -6 5 C-6.33 3.68 -6.66 2.36 -7 1 C-4.50935112 0.31292445 -2.62113708 0 0 0 Z " fill="#3A5957" transform="translate(118,78)"/>
<path d="M0 0 C3.63 0 7.26 0 11 0 C11.33 0.99 11.66 1.98 12 3 C7.71 2.67 3.42 2.34 -1 2 C-0.67 1.34 -0.34 0.68 0 0 Z " fill="#253C3A" transform="translate(104,101)"/>
<path d="M0 0 C0.99 0 1.98 0 3 0 C3 2.64 3 5.28 3 8 C2.01 7.67 1.02 7.34 0 7 C-0.38133299 5.0085944 -0.71325582 3.00720923 -1 1 C-0.67 0.67 -0.34 0.34 0 0 Z " fill="#C7AC87" transform="translate(52,78)"/>
<path d="M0 0 C1.4540625 0.0309375 1.4540625 0.0309375 2.9375 0.0625 C2.9375 1.3825 2.9375 2.7025 2.9375 4.0625 C0.9575 4.0625 -1.0225 4.0625 -3.0625 4.0625 C-3.3925 3.0725 -3.7225 2.0825 -4.0625 1.0625 C-3.0625 0.0625 -3.0625 0.0625 0 0 Z " fill="#2B5864" transform="translate(102.0625,144.9375)"/>
<path d="M0 0 C2.88575819 0.39803561 3.82189513 0.79009069 5.75 3.0625 C6.1625 3.701875 6.575 4.34125 7 5 C5.1875 5.6875 5.1875 5.6875 3 6 C1.25 4.75 1.25 4.75 0 3 C0 2.01 0 1.02 0 0 Z " fill="#DEE1E1" transform="translate(18,98)"/>
<path d="M0 0 C0.99 0 1.98 0 3 0 C3 1.98 3 3.96 3 6 C1.68 6 0.36 6 -1 6 C-1.042721 4.33388095 -1.04063832 2.66617115 -1 1 C-0.67 0.67 -0.34 0.34 0 0 Z " fill="#F2D5B2" transform="translate(128,102)"/>
<path d="M0 0 C2 2 2 2 2.125 5.125 C2.08375 6.07375 2.0425 7.0225 2 8 C0.68 7.67 -0.64 7.34 -2 7 C-1.125 2.25 -1.125 2.25 0 0 Z " fill="#FAA25C" transform="translate(100,82)"/>
<path d="M0 0 C2.64 0 5.28 0 8 0 C8 0.99 8 1.98 8 3 C5.69 3 3.38 3 1 3 C0.67 2.01 0.34 1.02 0 0 Z " fill="#635F53" transform="translate(97,142)"/>
<path d="M0 0 C0.33 0 0.66 0 1 0 C1.433125 1.423125 1.433125 1.423125 1.875 2.875 C2.76825109 6.05211578 2.76825109 6.05211578 5 8 C3.02 8 1.04 8 -1 8 C-2.2077558 4.37673261 -1.54311128 3.35853631 0 0 Z " fill="#132C26" transform="translate(59,133)"/>
<path d="M0 0 C0.99 0 1.98 0 3 0 C3.433125 1.2065625 3.433125 1.2065625 3.875 2.4375 C4.73262568 5.1326468 4.73262568 5.1326468 7 6 C7.625 8.0625 7.625 8.0625 8 10 C6 10 6 10 4.4921875 8.57421875 C3.95851562 7.95160156 3.42484375 7.32898438 2.875 6.6875 C2.33617187 6.07261719 1.79734375 5.45773438 1.2421875 4.82421875 C0 3 0 3 0 0 Z " fill="#3D595B" transform="translate(49,117)"/>
<path d="M0 0 C3.21043882 1.38188453 5.04936365 2.92421903 7.25 5.625 C8.03117187 6.57246094 8.03117187 6.57246094 8.828125 7.5390625 C9.40820312 8.26222656 9.40820312 8.26222656 10 9 C5.57238086 7.60846256 3.0443745 5.47928514 0 2 C0 1.34 0 0.68 0 0 Z " fill="#0D2A2D" transform="translate(117,63)"/>
<path d="M0 0 C1.51953125 1.20703125 1.51953125 1.20703125 3 3 C3.07421875 5.26171875 3.07421875 5.26171875 2.6875 7.6875 C2.50767578 8.89986328 2.50767578 8.89986328 2.32421875 10.13671875 C2.21722656 10.75160156 2.11023438 11.36648437 2 12 C0 10 0 10 -0.1953125 7.6171875 C-0.17210938 6.71226563 -0.14890625 5.80734375 -0.125 4.875 C-0.10695313 3.96492188 -0.08890625 3.05484375 -0.0703125 2.1171875 C-0.04710938 1.41851562 -0.02390625 0.71984375 0 0 Z " fill="#E6CFC0" transform="translate(103,46)"/>
<path d="M0 0 C0.99 0 1.98 0 3 0 C3 0.66 3 1.32 3 2 C4.98 2.66 6.96 3.32 9 4 C9 4.33 9 4.66 9 5 C3.25 5.125 3.25 5.125 1 4 C0.375 1.9375 0.375 1.9375 0 0 Z " fill="#D9D1D5" transform="translate(39,133)"/>
<path d="M0 0 C2.875 -0.125 2.875 -0.125 6 0 C6.66 0.66 7.32 1.32 8 2 C5.36 2.66 2.72 3.32 0 4 C0 2.68 0 1.36 0 0 Z " fill="#9B9E95" transform="translate(159,98)"/>
<path d="M0 0 C-1.26691507 0.67408308 -2.53870749 1.33900497 -3.8125 2 C-4.52019531 2.37125 -5.22789063 2.7425 -5.95703125 3.125 C-8 4 -8 4 -11 4 C-11.33 3.34 -11.66 2.68 -12 2 C-10.75579353 1.4654744 -9.50429064 0.94791389 -8.25 0.4375 C-7.55390625 0.14746094 -6.8578125 -0.14257812 -6.140625 -0.44140625 C-3.69987216 -1.07831803 -2.3596345 -0.80248831 0 0 Z " fill="#D2C9BA" transform="translate(99,75)"/>
<path d="M0 0 C0.33 0.66 0.66 1.32 1 2 C0.01 3.485 0.01 3.485 -1 5 C-2.9453125 5.29296875 -2.9453125 5.29296875 -5.125 5.1875 C-6.40375 5.125625 -7.6825 5.06375 -9 5 C-6.53473114 2.53473114 -4.28518427 2.04846307 -1 1 C-0.67 0.67 -0.34 0.34 0 0 Z " fill="#324E55" transform="translate(73,146)"/>
<path d="M0 0 C0.66 0.33 1.32 0.66 2 1 C1.34 2.65 0.68 4.3 0 6 C-0.99 6 -1.98 6 -3 6 C-3 4.68 -3 3.36 -3 2 C-2.01 1.34 -1.02 0.68 0 0 Z " fill="#FAFCF9" transform="translate(95,46)"/>
<path d="M0 0 C0.99 0 1.98 0 3 0 C3.6875 2.8125 3.6875 2.8125 4 6 C3.01 6.99 2.02 7.98 1 9 C0.67 6.03 0.34 3.06 0 0 Z " fill="#E3EAEC" transform="translate(34,122)"/>
<path d="M0 0 C0.99 0 1.98 0 3 0 C3 2 3 2 1.625 3.4375 C1.08875 3.953125 0.5525 4.46875 0 5 C-0.99 6.485 -0.99 6.485 -2 8 C-2.66 8 -3.32 8 -4 8 C-2.87548273 5.0280615 -1.77706209 2.66559313 0 0 Z " fill="#344948" transform="translate(63,100)"/>
<path d="M0 0 C2.97 0.33 5.94 0.66 9 1 C8 3 8 3 5.625 3.8125 C3 4 3 4 1.1875 2.625 C0 1 0 1 0 0 Z " fill="#A2744B" transform="translate(92,92)"/>
<path d="M0 0 C2.625 0.9375 2.625 0.9375 5 2 C4.67 2.66 4.34 3.32 4 4 C2.68 3.67 1.36 3.34 0 3 C0 4.65 0 6.3 0 8 C-0.66 7.67 -1.32 7.34 -2 7 C-2 5.02 -2 3.04 -2 1 C-1.34 0.67 -0.68 0.34 0 0 Z " fill="#F8CFA7" transform="translate(97,77)"/>
<path d="M0 0 C0 0.99 0 1.98 0 3 C-3 3 -6 3 -9 3 C-5.92807025 0.26939578 -4.09590633 -0.34132553 0 0 Z " fill="#CFDDDE" transform="translate(101,44)"/>
<path d="M0 0 C0.99 0 1.98 0 3 0 C3.125 5.75 3.125 5.75 2 8 C1.01 7.67 0.02 7.34 -1 7 C-0.34 7 0.32 7 1 7 C0.67 4.69 0.34 2.38 0 0 Z " fill="#445942" transform="translate(109,128)"/>
<path d="M0 0 C0.66 0 1.32 0 2 0 C0.86500606 3.29148243 0.00716624 3.9959869 -3.125 5.75 C-4.548125 6.36875 -4.548125 6.36875 -6 7 C-6.33 6.34 -6.66 5.68 -7 5 C-2.25 2 -2.25 2 0 2 C0 1.34 0 0.68 0 0 Z " fill="#806953" transform="translate(117,94)"/>
<path d="M0 0 C0.33 0 0.66 0 1 0 C1 1.65 1 3.3 1 5 C1.66 5 2.32 5 3 5 C3.33 6.32 3.66 7.64 4 9 C1.525 8.01 1.525 8.01 -1 7 C-0.67 4.69 -0.34 2.38 0 0 Z " fill="#EECAA4" transform="translate(104,85)"/>
<path d="M0 0 C0 0.66 0 1.32 0 2 C-3.96 1.67 -7.92 1.34 -12 1 C-12 0.67 -12 0.34 -12 0 C-10.56359829 -0.19573608 -9.12580496 -0.38127816 -7.6875 -0.5625 C-6.88699219 -0.66691406 -6.08648437 -0.77132812 -5.26171875 -0.87890625 C-3 -1 -3 -1 0 0 Z " fill="#3C5659" transform="translate(106,62)"/>
<path d="M0 0 C-0.33 1.32 -0.66 2.64 -1 4 C-2.32 4 -3.64 4 -5 4 C-5 3.01 -5 2.02 -5 1 C-3 0 -3 0 0 0 Z " fill="#BC7742" transform="translate(94,137)"/>
<path d="M0 0 C1.9375 0.3125 1.9375 0.3125 4 1 C4.33 1.99 4.66 2.98 5 4 C3.35 4 1.7 4 0 4 C0 2.68 0 1.36 0 0 Z " fill="#B9753D" transform="translate(76,137)"/>
<path d="M0 0 C2.97 0.495 2.97 0.495 6 1 C3.36095629 2.41377341 0.92879371 3.37240135 -2 4 C-1.34 2.68 -0.68 1.36 0 0 Z " fill="#0D2E34" transform="translate(58,108)"/>
<path d="M0 0 C2.64 0 5.28 0 8 0 C7.67 0.99 7.34 1.98 7 3 C4.69 2.67 2.38 2.34 0 2 C0 1.34 0 0.68 0 0 Z " fill="#D1CBB6" transform="translate(67,100)"/>
<path d="M0 0 C3.63 0.33 7.26 0.66 11 1 C11 1.33 11 1.66 11 2 C4.375 3 4.375 3 1 3 C0.67 2.01 0.34 1.02 0 0 Z " fill="#AE9173" transform="translate(75,93)"/>
<path d="M0 0 C0.99 0.33 1.98 0.66 3 1 C3 3.64 3 6.28 3 9 C1 6 1 6 1 2 C0.34 1.67 -0.32 1.34 -1 1 C-0.67 0.67 -0.34 0.34 0 0 Z " fill="#D8DCDE" transform="translate(175,88)"/>
<path d="M0 0 C0.66 0 1.32 0 2 0 C2 2.31 2 4.62 2 7 C0.68 6.34 -0.64 5.68 -2 5 C-1.34 3.35 -0.68 1.7 0 0 Z " fill="#BFBBB4" transform="translate(118,77)"/>
<path d="M0 0 C0.99 0.33 1.98 0.66 3 1 C2.67 2.98 2.34 4.96 2 7 C1.01 6.67 0.02 6.34 -1 6 C-0.67 4.02 -0.34 2.04 0 0 Z " fill="#5B5D60" transform="translate(84,77)"/>
</svg>
